STARTFONT 2.3
FONT -FontForge-Courgette-Book-R-Normal--12-120-72-72-P-62-ISO10646-1
SIZE 12 72 72  4
FONTBOUNDINGBOX 17 16 -3 -4
COMMENT "Generated by fontforge, http://fontforge.sourceforge.net"
COMMENT "Copyright (c) 2012, Sorkin Type Co (www.sorkintype.com) with Reserved Font Name "Courgette"."
STARTPROPERTIES 41
FOUNDRY "FontForge"
FAMILY_NAME "Courgette"
WEIGHT_NAME "Book"
SLANT "R"
SETWIDTH_NAME "Normal"
ADD_STYLE_NAME ""
PIXEL_SIZE 12
POINT_SIZE 120
RESOLUTION_X 72
RESOLUTION_Y 72
SPACING "P"
AVERAGE_WIDTH 62
CHARSET_REGISTRY "ISO10646"
CHARSET_ENCODING "1"
FONTNAME_REGISTRY ""
CHARSET_COLLECTIONS "ISO8859-2 ISO8859-9 ISO8859-4 ISO10646-1"
BITS_PER_PIXEL 4
FONT_NAME "Courgette-Regular"
FACE_NAME "Courgette Regular"
COPYRIGHT "Copyright (c) 2012, Sorkin Type Co (www.sorkintype.com) with Reserved Font Name "Courgette"."
FONT_VERSION "1.002"
FONT_ASCENT 10
FONT_DESCENT 2
UNDERLINE_POSITION -1
UNDERLINE_THICKNESS 1
X_HEIGHT 5
CAP_HEIGHT 8
DEFAULT_CHAR 1
RAW_ASCENT 799
RAW_DESCENT 200
NORM_SPACE 4
RELATIVE_WEIGHT 40
RELATIVE_SETWIDTH 50
SUPERSCRIPT_X 0
SUPERSCRIPT_Y 5
SUPERSCRIPT_SIZE 7
SUBSCRIPT_X 0
SUBSCRIPT_Y 1
SUBSCRIPT_SIZE 7
AVG_LOWERCASE_WIDTH 60
AVG_UPPERCASE_WIDTH 70
ENDPROPERTIES
CHARS 407
STARTCHAR .null.dup1
ENCODING 0
SWIDTH 0 0
DWIDTH 0 0
BBX 1 1 0 0
BITMAP
00
ENDCHAR
STARTCHAR uni0001
ENCODING 1
SWIDTH 0 0
DWIDTH 0 0
BBX 1 1 0 0
BITMAP
00
ENDCHAR
STARTCHAR uni0002
ENCODING 2
SWIDTH 0 0
DWIDTH 0 0
BBX 1 1 0 0
BITMAP
00
ENDCHAR
STARTCHAR uni0003
ENCODING 3
SWIDTH 0 0
DWIDTH 0 0
BBX 1 1 0 0
BITMAP
00
ENDCHAR
STARTCHAR uni0004
ENCODING 4
SWIDTH 0 0
DWIDTH 0 0
BBX 1 1 0 0
BITMAP
00
ENDCHAR
STARTCHAR uni0005
ENCODING 5
SWIDTH 0 0
DWIDTH 0 0
BBX 1 1 0 0
BITMAP
00
ENDCHAR
STARTCHAR uni0006
ENCODING 6
SWIDTH 0 0
DWIDTH 0 0
BBX 1 1 0 0
BITMAP
00
ENDCHAR
STARTCHAR uni0007
ENCODING 7
SWIDTH 0 0
DWIDTH 0 0
BBX 1 1 0 0
BITMAP
00
ENDCHAR
STARTCHAR uni0008
ENCODING 8
SWIDTH 0 0
DWIDTH 0 0
BBX 1 1 0 0
BITMAP
00
ENDCHAR
STARTCHAR uni0009
ENCODING 9
SWIDTH 0 0
DWIDTH 0 0
BBX 1 1 0 0
BITMAP
00
ENDCHAR
STARTCHAR nonmarkingreturn
ENCODING 13
SWIDTH 0 0
DWIDTH 0 0
BBX 1 1 0 0
BITMAP
00
ENDCHAR
STARTCHAR uni0015
ENCODING 21
SWIDTH 0 0
DWIDTH 0 0
BBX 1 1 0 0
BITMAP
00
ENDCHAR
STARTCHAR uni0016
ENCODING 22
SWIDTH 0 0
DWIDTH 0 0
BBX 1 1 0 0
BITMAP
00
ENDCHAR
STARTCHAR uni0017
ENCODING 23
SWIDTH 0 0
DWIDTH 0 0
BBX 1 1 0 0
BITMAP
00
ENDCHAR
STARTCHAR uni0018
ENCODING 24
SWIDTH 0 0
DWIDTH 0 0
BBX 1 1 0 0
BITMAP
00
ENDCHAR
STARTCHAR uni0019
ENCODING 25
SWIDTH 0 0
DWIDTH 0 0
BBX 1 1 0 0
BITMAP
00
ENDCHAR
STARTCHAR space
ENCODING 32
SWIDTH 307 0
DWIDTH 4 0
BBX 1 1 0 0
BITMAP
00
ENDCHAR
STARTCHAR exclam
ENCODING 33
SWIDTH 417 0
DWIDTH 5 0
BBX 5 10 1 -1
BITMAP
003E50
00CC00
03F400
08C000
0D6000
0E1000
180000
540000
FB0000
210000
ENDCHAR
STARTCHAR quotedbl
ENCODING 34
SWIDTH 437 0
DWIDTH 5 0
BBX 6 3 1 7
BITMAP
0C85E1
4D1C60
460A00
ENDCHAR
STARTCHAR numbersign
ENCODING 35
SWIDTH 725 0
DWIDTH 9 0
BBX 9 9 0 0
BITMAP
0000682D00
0000D38900
0003D0D300
04BECDDB40
000E195000
2BCECEC600
00A4590000
00D0850000
0290A10000
ENDCHAR
STARTCHAR dollar
ENCODING 36
SWIDTH 545 0
DWIDTH 7 0
BBX 7 13 0 -2
BITMAP
00000160
00000870
0008CE50
009A02D0
02F306E0
03F33E80
01EA1400
006F5000
060AA000
4E079000
1CCB2000
08400000
05000000
ENDCHAR
STARTCHAR percent
ENCODING 37
SWIDTH 876 0
DWIDTH 11 0
BBX 10 9 0 0
BITMAP
01BC8002C1
0BA3E01C60
1F46B0A900
0C2928B000
00105D3AB2
0003D2D689
002D44E0A8
00C505C2E3
087001CC60
ENDCHAR
STARTCHAR ampersand
ENCODING 38
SWIDTH 563 0
DWIDTH 7 0
BBX 7 9 0 0
BITMAP
002ADB40
02E903C0
09C02C90
0B807C10
04DA3000
0BD41000
6E14EB60
8C01D100
2CBB4000
ENDCHAR
STARTCHAR quotesingle
ENCODING 39
SWIDTH 231 0
DWIDTH 3 0
BBX 3 3 1 7
BITMAP
0C80
4D10
4600
ENDCHAR
STARTCHAR parenleft
ENCODING 40
SWIDTH 478 0
DWIDTH 6 0
BBX 7 14 1 -3
BITMAP
00000510
0001B600
001C5000
00A80000
05D10000
0C700000
3F100000
7D000000
9B000000
A9000000
9A000000
5D000000
1E300000
04C00000
ENDCHAR
STARTCHAR parenright
ENCODING 41
SWIDTH 478 0
DWIDTH 6 0
BBX 7 14 -2 -3
BITMAP
00006100
00007B00
00000E40
00000A80
000009A0
000009A0
00000A90
00000D50
00003F10
00009900
0003E200
001C5000
00B70000
1A500000
ENDCHAR
STARTCHAR asterisk
ENCODING 42
SWIDTH 518 0
DWIDTH 6 0
BBX 5 5 1 4
BITMAP
006D00
18A730
0BECA0
0AC700
341C00
ENDCHAR
STARTCHAR plus
ENCODING 43
SWIDTH 617 0
DWIDTH 7 0
BBX 7 6 0 1
BITMAP
00083000
000A3000
000A3000
1BBECB70
000A3000
00092000
ENDCHAR
STARTCHAR comma
ENCODING 44
SWIDTH 312 0
DWIDTH 4 0
BBX 3 4 0 -2
BITMAP
2600
5F30
3E10
9300
ENDCHAR
STARTCHAR hyphen
ENCODING 45
SWIDTH 452 0
DWIDTH 5 0
BBX 4 1 1 3
BITMAP
9BB5
ENDCHAR
STARTCHAR period
ENCODING 46
SWIDTH 270 0
DWIDTH 3 0
BBX 3 2 0 0
BITMAP
8E20
6A00
ENDCHAR
STARTCHAR slash
ENCODING 47
SWIDTH 405 0
DWIDTH 5 0
BBX 8 13 -1 -2
BITMAP
00000006
00000089
000002E1
00000B60
00004C00
0000D400
0006A000
001E2000
00880000
02D10000
0A600000
4C000000
B3000000
ENDCHAR
STARTCHAR zero
ENCODING 48
SWIDTH 621 0
DWIDTH 7 0
BBX 8 9 0 0
BITMAP
0002ACC1
003E50B6
00D800B7
06E100E5
0C9005F1
1F400BA0
3F104F30
2F02E600
09CC5000
ENDCHAR
STARTCHAR one
ENCODING 49
SWIDTH 405 0
DWIDTH 5 0
BBX 5 9 0 0
BITMAP
001AB0
03DEC0
012B80
001F30
007C00
00C500
03D000
0A5000
190000
ENDCHAR
STARTCHAR two
ENCODING 50
SWIDTH 524 0
DWIDTH 6 0
BBX 7 9 0 0
BITMAP
003CCA00
01E40C40
06F10E50
02C28E10
0007F600
007F7000
07F60000
4E400000
BCBBB300
ENDCHAR
STARTCHAR three
ENCODING 51
SWIDTH 537 0
DWIDTH 6 0
BBX 7 9 0 0
BITMAP
003BCC20
01E50A80
05F20C80
01926F20
002AE400
003AC000
1712F200
7C08C000
2CBA2000
ENDCHAR
STARTCHAR four
ENCODING 52
SWIDTH 529 0
DWIDTH 6 0
BBX 7 9 0 0
BITMAP
006B0000
00AC0000
02F61800
09C06E00
2E30C900
1BBCFC20
00099000
001E1000
00660000
ENDCHAR
STARTCHAR five
ENCODING 53
SWIDTH 540 0
DWIDTH 6 0
BBX 8 9 0 0
BITMAP
001ECBD3
006A2650
00D40000
05FBD500
06608D00
00008C00
3A00D800
8907D100
2CBA2000
ENDCHAR
STARTCHAR six
ENCODING 54
SWIDTH 554 0
DWIDTH 7 0
BBX 7 9 0 0
BITMAP
0004CC70
005D24D0
02E30D70
09CAC500
0EE24E00
1F704F00
2F208C00
1E22E500
06CC5000
ENDCHAR
STARTCHAR seven
ENCODING 55
SWIDTH 473 0
DWIDTH 6 0
BBX 6 9 1 0
BITMAP
4CA8C6
0004D1
002E30
00C700
07D000
1E5000
6E0000
AA0000
350000
ENDCHAR
STARTCHAR eight
ENCODING 56
SWIDTH 524 0
DWIDTH 6 0
BBX 7 9 0 0
BITMAP
002ABB10
00C30C80
01F10B80
00F63E20
009EC400
05CE8000
3E15D000
6D02C000
1BBA3000
ENDCHAR
STARTCHAR nine
ENCODING 57
SWIDTH 554 0
DWIDTH 7 0
BBX 7 9 0 0
BITMAP
001ACC20
01D70A80
06E00A90
0AA01E70
09A09F40
02CB9E00
0100A700
4E06B000
3DA81000
ENDCHAR
STARTCHAR colon
ENCODING 58
SWIDTH 312 0
DWIDTH 4 0
BBX 4 6 0 0
BITMAP
08E2
05A1
0000
0000
7E30
5B10
ENDCHAR
STARTCHAR semicolon
ENCODING 59
SWIDTH 312 0
DWIDTH 4 0
BBX 4 7 0 -2
BITMAP
07E2
05A1
0000
2600
5F30
3E10
9300
ENDCHAR
STARTCHAR less
ENCODING 60
SWIDTH 637 0
DWIDTH 8 0
BBX 7 6 0 1
BITMAP
00001890
0017C600
07D71000
19D50000
002AB300
00002A80
ENDCHAR
STARTCHAR equal
ENCODING 61
SWIDTH 617 0
DWIDTH 7 0
BBX 6 3 1 3
BITMAP
ABBBB9
000000
ABBBB7
ENDCHAR
STARTCHAR greater
ENCODING 62
SWIDTH 606 0
DWIDTH 7 0
BBX 7 6 0 1
BITMAP
0C810000
007D7100
00018D60
00029C40
018C5000
1C500000
ENDCHAR
STARTCHAR question
ENCODING 63
SWIDTH 516 0
DWIDTH 6 0
BBX 6 9 1 0
BITMAP
01ACB1
08B097
0891D5
003DA0
05E700
0E5000
060000
B80000
D90000
ENDCHAR
STARTCHAR at
ENCODING 64
SWIDTH 905 0
DWIDTH 11 0
BBX 11 10 0 -2
BITMAP
00016BBB8100
003B61006D10
02C12BA94970
0B51E46F2690
2E08B07B0780
5C0B70D60C30
6C0C77E38900
3F25C48C7000
0AC200200000
006BCA700000
ENDCHAR
STARTCHAR A
ENCODING 65
SWIDTH 615 0
DWIDTH 7 0
BBX 9 9 -1 0
BITMAP
0000007CA0
00000A6C60
0000964F10
0005A0AA00
005EDDFE40
01B825F200
02E107C000
0C7009A000
BA0005E700
ENDCHAR
STARTCHAR B
ENCODING 66
SWIDTH 551 0
DWIDTH 7 0
BBX 8 9 0 0
BITMAP
05BCBC60
078602F2
01D804F1
07D16E60
0DEEF400
2F209A00
5B008B00
6A03E500
1CCB4000
ENDCHAR
STARTCHAR C
ENCODING 67
SWIDTH 533 0
DWIDTH 6 0
BBX 8 9 0 0
BITMAP
0003BCA0
005E40C3
02F505F2
0AB02F80
1F500100
4F100000
6F000000
3F305400
08DCA200
ENDCHAR
STARTCHAR D
ENCODING 68
SWIDTH 630 0
DWIDTH 8 0
BBX 8 9 0 0
BITMAP
06CCBB60
046401D5
009E108A
02F6009B
08D000D8
0D8006E1
3F204E50
6D06E600
2CCA2000
ENDCHAR
STARTCHAR E
ENCODING 69
SWIDTH 509 0
DWIDTH 6 0
BBX 7 9 0 0
BITMAP
0019DB80
00CB11E0
06E12CA0
09A04910
04D84000
08E72000
4F400000
7E01C200
1BCC6000
ENDCHAR
STARTCHAR F
ENCODING 70
SWIDTH 518 0
DWIDTH 6 0
BBX 8 9 0 0
BITMAP
1BDCEBB3
3B08A000
000E5000
004F2000
04DFB800
02F60000
05E10000
0D700000
79000000
ENDCHAR
STARTCHAR G
ENCODING 71
SWIDTH 598 0
DWIDTH 7 0
BBX 8 9 0 0
BITMAP
0003BCA0
005E50B4
02E605F2
0AC01F80
1F600100
4F11ED90
5F006800
3F20A200
08DB4000
ENDCHAR
STARTCHAR H
ENCODING 72
SWIDTH 668 0
DWIDTH 8 0
BBX 10 9 -1 0
BITMAP
00ADC000B5
0016E001F4
0009B004E1
000D8009A0
009FCACFA0
009C005D00
01E500B700
09C001F300
4C2001DA10
ENDCHAR
STARTCHAR I
ENCODING 73
SWIDTH 327 0
DWIDTH 4 0
BBX 6 9 -1 0
BITMAP
008DC1
0013F2
0006E0
000AA0
000E60
005E10
00B900
04E100
1C4000
ENDCHAR
STARTCHAR J
ENCODING 74
SWIDTH 393 0
DWIDTH 5 0
BBX 8 12 -2 -3
BITMAP
0007DDB0
004D45F1
000009D0
00000D80
00003F40
00009D00
0001E700
0007E100
001E6000
00AB0000
07D10000
AA100000
ENDCHAR
STARTCHAR K
ENCODING 75
SWIDTH 616 0
DWIDTH 7 0
BBX 9 9 -1 0
BITMAP
01CD700A80
0019B00AA0
000C803F40
001F52D600
006F5C3000
00BCF40000
02F48E1000
0AB00DB000
5C1003DB20
ENDCHAR
STARTCHAR L
ENCODING 76
SWIDTH 517 0
DWIDTH 6 0
BBX 8 9 -1 0
BITMAP
00003CC4
0002E54A
000AB0A9
002F5BE2
007E0630
00D80000
03E10000
0B846710
2ECA9B70
ENDCHAR
STARTCHAR M
ENCODING 77
SWIDTH 931 0
DWIDTH 11 0
BBX 14 9 -2 0
BITMAP
0000003CB008E2
000003BC808BE0
00001D4F33CA90
0000877E0C4E40
0002D1B9595E00
000A60E6B29B00
004D00F890D700
01D401FD10E500
1C7000D5009C60
ENDCHAR
STARTCHAR N
ENCODING 78
SWIDTH 708 0
DWIDTH 9 0
BBX 10 9 0 0
BITMAP
0007E107D1
004EF003F4
00D7E004F1
06A5F008A0
0C44F20D20
2E01F45900
7A00D8C100
A7007E9000
A4001C4000
ENDCHAR
STARTCHAR O
ENCODING 79
SWIDTH 655 0
DWIDTH 8 0
BBX 8 9 0 0
BITMAP
0002ACD4
003E705D
01E8003F
08E1006E
0E7000BA
2F3003F4
3F000CA0
1F109C10
06CC9100
ENDCHAR
STARTCHAR P
ENCODING 80
SWIDTH 553 0
DWIDTH 7 0
BBX 9 9 -1 0
BITMAP
0029DCB600
00AC201E40
0015C00E60
000C905F20
003F46E600
009FDA4000
01E6000000
08C0000000
3C20000000
ENDCHAR
STARTCHAR Q
ENCODING 81
SWIDTH 655 0
DWIDTH 8 0
BBX 9 11 0 -2
BITMAP
0004BCC300
005E406B00
02E5005E00
09B0008C00
0E6000D700
1F4007E100
0E904E4000
0355D40000
03CFA10000
00029E6010
000004BC50
ENDCHAR
STARTCHAR R
ENCODING 82
SWIDTH 623 0
DWIDTH 7 0
BBX 9 10 -1 -1
BITMAP
002ADCB700
0068700D50
0007D00D70
000D806E20
003F7AD400
009CDA0000
01E54E2000
08C00CA000
3C2003EB10
0000000100
ENDCHAR
STARTCHAR S
ENCODING 83
SWIDTH 474 0
DWIDTH 6 0
BBX 7 9 0 0
BITMAP
003CCB10
02E40870
08C00C80
09C09E20
06F42200
00CD0000
232E4000
A80D3000
4DB60000
ENDCHAR
STARTCHAR T
ENCODING 84
SWIDTH 471 0
DWIDTH 6 0
BBX 8 9 0 0
BITMAP
0ADBECB4
1B04E000
000AA000
000E6000
004F1000
008B0000
00D50000
05D00000
1C300000
ENDCHAR
STARTCHAR U
ENCODING 85
SWIDTH 624 0
DWIDTH 8 0
BBX 9 9 0 0
BITMAP
009D001D30
007D007D00
00D801E800
04F207F200
0BA01EC000
2F308F8000
8C03AE4000
B9193F1000
7D811DB200
ENDCHAR
STARTCHAR V
ENCODING 86
SWIDTH 587 0
DWIDTH 7 0
BBX 8 9 1 0
BITMAP
8DC300E6
11E700C9
07F202E5
0E900BB0
5F208D10
AA08D200
E57C1000
F9B10000
9B100000
ENDCHAR
STARTCHAR W
ENCODING 87
SWIDTH 941 0
DWIDTH 11 0
BBX 12 9 0 0
BITMAP
0ACB100000BA
012F5006109E
009E11BD108E
02F70BF5009B
07E19ED000D6
0C85BA9005E1
1F4C1C601D50
2F940C61A700
0B8005DB4000
ENDCHAR
STARTCHAR X
ENCODING 88
SWIDTH 552 0
DWIDTH 7 0
BBX 10 9 -1 0
BITMAP
0002D005D4
0007E06D30
0006D3D200
0005ED4000
0003F70000
0008F50000
005BBA0000
05D15F4200
5C2009E600
ENDCHAR
STARTCHAR Y
ENCODING 89
SWIDTH 580 0
DWIDTH 7 0
BBX 9 12 0 -3
BITMAP
009D001D20
007D007D00
00D801E600
05F208F100
0B901EA000
3F309F5000
8C03BE0000
C819980000
7D83E10000
000C600000
00A9000000
2B70000000
ENDCHAR
STARTCHAR Z
ENCODING 90
SWIDTH 501 0
DWIDTH 6 0
BBX 9 9 -1 0
BITMAP
004BB9AD10
000002EC00
00001DD200
0001CC2000
000AC10000
008C100000
04C1000000
0D9ABC3000
1E92038000
ENDCHAR
STARTCHAR bracketleft
ENCODING 91
SWIDTH 396 0
DWIDTH 5 0
BBX 7 13 0 -2
BITMAP
00008910
0003F200
0009A000
000E4000
004E0000
00990000
00E40000
05D00000
0A800000
1F300000
6D000000
B8000000
CC300000
ENDCHAR
STARTCHAR backslash
ENCODING 92
SWIDTH 464 0
DWIDTH 6 0
BBX 5 13 0 -2
BITMAP
320000
4B0000
1E0000
0B4000
078000
04B000
00E100
00B400
007800
003C00
000E10
000A40
000570
ENDCHAR
STARTCHAR bracketright
ENCODING 93
SWIDTH 394 0
DWIDTH 5 0
BBX 7 13 -1 -2
BITMAP
00008D60
00000D50
00003E00
00008900
0000D400
0004E000
00099000
000E4000
004D0000
00980000
00E30000
05D00000
5C600000
ENDCHAR
STARTCHAR asciicircum
ENCODING 94
SWIDTH 540 0
DWIDTH 6 0
BBX 6 5 1 4
BITMAP
00A500
03FD00
0B6C50
4B03C0
A20093
ENDCHAR
STARTCHAR underscore
ENCODING 95
SWIDTH 530 0
DWIDTH 6 0
BBX 8 1 -2 -2
BITMAP
8BBBBBB9
ENDCHAR
STARTCHAR grave
ENCODING 96
SWIDTH 219 0
DWIDTH 3 0
BBX 2 3 0 6
BITMAP
6B
6C
1B
ENDCHAR
STARTCHAR a
ENCODING 97
SWIDTH 541 0
DWIDTH 7 0
BBX 7 7 0 -1
BITMAP
007CAC50
08C17E10
3F30C800
8C04F300
8B1BF000
3DA3ED00
00001000
ENDCHAR
STARTCHAR b
ENCODING 98
SWIDTH 525 0
DWIDTH 6 0
BBX 6 10 0 0
BITMAP
007800
00B800
00E400
04E000
09AAD6
0DD28C
3F409C
7C00E7
7909D1
2CC910
ENDCHAR
STARTCHAR c
ENCODING 99
SWIDTH 465 0
DWIDTH 6 0
BBX 6 6 0 0
BITMAP
008CC3
0AC1B7
4F33E2
8C0000
8C0150
2CCA20
ENDCHAR
STARTCHAR d
ENCODING 100
SWIDTH 557 0
DWIDTH 7 0
BBX 8 10 0 0
BITMAP
00000079
000000E6
000004E1
000009A0
005CBD50
06D15F10
1E409B00
6E01E700
7D0AF400
2DB5AB30
ENDCHAR
STARTCHAR e
ENCODING 101
SWIDTH 471 0
DWIDTH 6 0
BBX 6 6 0 0
BITMAP
007CD2
08C1B6
2F46E2
7FAA30
6D0150
1BCC50
ENDCHAR
STARTCHAR f
ENCODING 102
SWIDTH 393 0
DWIDTH 5 0
BBX 8 12 -1 -2
BITMAP
00003BB1
0000D5A6
0005E2F4
0009A050
000D6000
02BFCA00
019C0000
00C70000
01F30000
07D00000
0C700000
2C100000
ENDCHAR
STARTCHAR g
ENCODING 103
SWIDTH 526 0
DWIDTH 6 0
BBX 7 10 0 -4
BITMAP
007CB730
08C15F20
2F309B00
7E02F700
7C0BF200
3EB9C000
000C5000
006C0000
18C20000
03000000
ENDCHAR
STARTCHAR h
ENCODING 104
SWIDTH 555 0
DWIDTH 7 0
BBX 7 10 0 0
BITMAP
002D0000
005E0000
009A0000
00D60000
02F3AD10
07B84F20
0CC1AC00
3F31F500
9A05F100
D302E900
ENDCHAR
STARTCHAR i
ENCODING 105
SWIDTH 286 0
DWIDTH 3 0
BBX 4 9 0 0
BITMAP
00BB
0076
0000
08E0
07C0
0C50
4D00
9A10
7E40
ENDCHAR
STARTCHAR j
ENCODING 106
SWIDTH 281 0
DWIDTH 3 0
BBX 6 12 -2 -3
BITMAP
0002E6
0001A3
000000
000AC0
0008C0
000A90
000E50
004E00
00A800
03E100
0C5000
A60000
ENDCHAR
STARTCHAR k
ENCODING 107
SWIDTH 497 0
DWIDTH 6 0
BBX 6 10 0 0
BITMAP
002D00
005D00
009A00
00D600
02F17D
07B0AC
0CAC81
3FE700
9A6E31
D30AE5
ENDCHAR
STARTCHAR l
ENCODING 108
SWIDTH 279 0
DWIDTH 3 0
BBX 4 10 0 0
BITMAP
005A
009B
00C7
01F3
06D0
0B80
1F30
5E00
9A00
6D50
ENDCHAR
STARTCHAR m
ENCODING 109
SWIDTH 814 0
DWIDTH 10 0
BBX 10 6 0 0
BITMAP
08D1AC19E2
07C82D93F3
0BC27F39C0
2F40D81E50
9B05E13F20
C407801DB0
ENDCHAR
STARTCHAR n
ENCODING 110
SWIDTH 561 0
DWIDTH 7 0
BBX 7 6 0 0
BITMAP
08C1AD10
07C83F30
0BC19D00
2F41E600
9B03F100
C402E900
ENDCHAR
STARTCHAR o
ENCODING 111
SWIDTH 514 0
DWIDTH 6 0
BBX 6 6 0 0
BITMAP
008CD4
09C19A
3F30AA
7D01F6
8B0AC0
2CCA10
ENDCHAR
STARTCHAR p
ENCODING 112
SWIDTH 550 0
DWIDTH 7 0
BBX 8 9 -1 -3
BITMAP
00C98DA0
00AE53F2
00E904F1
03F209B0
07E05E20
0BBCB300
1F200000
7C000000
B5000000
ENDCHAR
STARTCHAR q
ENCODING 113
SWIDTH 533 0
DWIDTH 6 0
BBX 7 9 0 -3
BITMAP
006CB730
07D15F40
2F409C00
6E02F600
7C0AE100
2DB99000
000C4000
001F1000
000D1000
ENDCHAR
STARTCHAR r
ENCODING 114
SWIDTH 407 0
DWIDTH 5 0
BBX 6 6 0 0
BITMAP
0AA3D4
08BBA3
0CC200
2F6000
8D0000
A60000
ENDCHAR
STARTCHAR s
ENCODING 115
SWIDTH 423 0
DWIDTH 5 0
BBX 6 6 0 0
BITMAP
03BC90
0C72E1
0AC110
02E800
938B00
8DB300
ENDCHAR
STARTCHAR t
ENCODING 116
SWIDTH 358 0
DWIDTH 4 0
BBX 5 8 0 0
BITMAP
001600
008C00
08FB80
06D000
0A8000
0E4000
1F3500
0BE600
ENDCHAR
STARTCHAR u
ENCODING 117
SWIDTH 553 0
DWIDTH 7 0
BBX 7 6 0 0
BITMAP
07E00B60
07D04F20
0D80CA00
4F27E400
AB48F000
7D61E900
ENDCHAR
STARTCHAR v
ENCODING 118
SWIDTH 510 0
DWIDTH 6 0
BBX 6 6 0 0
BITMAP
07E08C
06D05E
0C707B
4E10C4
9B1970
6EB500
ENDCHAR
STARTCHAR w
ENCODING 119
SWIDTH 750 0
DWIDTH 9 0
BBX 9 6 0 0
BITMAP
09D0170A90
06D08C07C0
0A72F60790
1F2BF10C30
7CA6E07700
7D30CD6000
ENDCHAR
STARTCHAR x
ENCODING 120
SWIDTH 467 0
DWIDTH 6 0
BBX 8 6 -1 0
BITMAP
006908C1
00AA8A00
008EA000
005F2000
02CD7000
2C34D800
ENDCHAR
STARTCHAR y
ENCODING 121
SWIDTH 549 0
DWIDTH 7 0
BBX 7 10 0 -4
BITMAP
06E10A70
06E03F40
0C90BE00
3F35F900
9C39E300
7D75C000
000B6000
006C0000
17D20000
15100000
ENDCHAR
STARTCHAR z
ENCODING 122
SWIDTH 430 0
DWIDTH 5 0
BBX 6 6 0 0
BITMAP
07CAD6
0038E2
009D20
0AC100
8D4400
CC9C50
ENDCHAR
STARTCHAR braceleft
ENCODING 123
SWIDTH 424 0
DWIDTH 5 0
BBX 7 13 0 -2
BITMAP
00005C50
0000E600
0004E100
0008B000
000C7000
006E1000
0AD40000
05C00000
05D00000
0B800000
1F300000
5E000000
3C600000
ENDCHAR
STARTCHAR bar
ENCODING 124
SWIDTH 306 0
DWIDTH 4 0
BBX 2 13 1 -2
BITMAP
58
89
89
89
89
89
89
89
89
89
89
89
76
ENDCHAR
STARTCHAR braceright
ENCODING 125
SWIDTH 424 0
DWIDTH 5 0
BBX 7 13 -1 -2
BITMAP
00008C10
00001F30
00005E00
0000B800
0001F300
0000E200
0006D700
003F4000
009A0000
00E50000
02F10000
08C00000
7C300000
ENDCHAR
STARTCHAR asciitilde
ENCODING 126
SWIDTH 624 0
DWIDTH 8 0
BBX 8 3 0 3
BITMAP
02BB1042
0A0AA0A0
3501BA20
ENDCHAR
STARTCHAR nonbreakingspace
ENCODING 160
SWIDTH 293 0
DWIDTH 4 0
BBX 1 1 0 0
BITMAP
00
ENDCHAR
STARTCHAR exclamdown
ENCODING 161
SWIDTH 417 0
DWIDTH 5 0
BBX 5 10 0 -3
BITMAP
001B40
003E60
001100
00C100
05B000
0C7000
3F3000
7E0000
AC0000
690000
ENDCHAR
STARTCHAR cent
ENCODING 162
SWIDTH 487 0
DWIDTH 6 0
BBX 6 9 0 0
BITMAP
000069
0001D2
008DC6
06E27A
0D80C5
1F4000
0E6080
05EB50
038000
ENDCHAR
STARTCHAR sterling
ENCODING 163
SWIDTH 665 0
DWIDTH 8 0
BBX 10 9 -1 0
BITMAP
000001ACA0
00000BA0E1
00005F28D0
0000CA3C30
003AFC7000
0009C00000
08CE700000
395FE20720
1CD88DCA00
ENDCHAR
STARTCHAR currency
ENCODING 164
SWIDTH 572 0
DWIDTH 7 0
BBX 8 8 0 0
BITMAP
00350020
006ECC91
00C92F10
06E13F20
0A908D00
0993E400
0CBBD100
24005300
ENDCHAR
STARTCHAR yen
ENCODING 165
SWIDTH 583 0
DWIDTH 7 0
BBX 9 9 0 0
BITMAP
2DA0004D50
02E503E800
00891D8000
002C8B0000
000DE20000
04CFF90000
000F500000
09DFC30000
0088000000
ENDCHAR
STARTCHAR brokenbar
ENCODING 166
SWIDTH 292 0
DWIDTH 4 0
BBX 2 13 1 -2
BITMAP
75
A6
A6
A6
A6
94
00
75
A6
A6
A6
A6
94
ENDCHAR
STARTCHAR section
ENCODING 167
SWIDTH 583 0
DWIDTH 7 0
BBX 8 13 0 -3
BITMAP
0003BB60
000D70D2
003F33F3
002F6A80
005ED000
07C5F400
0D70BB00
0CB07D00
06F5B800
00CE5000
635F0000
D54D0000
6CA30000
ENDCHAR
STARTCHAR dieresis
ENCODING 168
SWIDTH 412 0
DWIDTH 5 0
BBX 5 2 0 7
BITMAP
6E3AD0
3A1670
ENDCHAR
STARTCHAR copyright
ENCODING 169
SWIDTH 871 0
DWIDTH 10 0
BBX 10 9 0 0
BITMAP
0003ABCB40
006C5AC6C5
03D2E6494C
0B58C1D61F
0E1C70501E
1F0B70406A
0D33BC51D3
05C2003C50
005CCCA300
ENDCHAR
STARTCHAR ordfeminine
ENCODING 170
SWIDTH 564 0
DWIDTH 7 0
BBX 6 6 1 3
BITMAP
008C88
0A92F5
4E15E0
9A0B90
A85E60
3C76B2
ENDCHAR
STARTCHAR guillemotleft
ENCODING 171
SWIDTH 662 0
DWIDTH 8 0
BBX 8 5 0 1
BITMAP
00193193
07D47D40
1E61E600
03D43E40
00250250
ENDCHAR
STARTCHAR logicalnot
ENCODING 172
SWIDTH 729 0
DWIDTH 9 0
BBX 7 4 1 1
BITMAP
ABBBBC80
000006A0
00000790
00000660
ENDCHAR
STARTCHAR uni00AD
ENCODING 173
SWIDTH 833 0
DWIDTH 10 0
BBX 1 1 0 0
BITMAP
00
ENDCHAR
STARTCHAR registered
ENCODING 174
SWIDTH 742 0
DWIDTH 9 0
BBX 8 8 1 1
BITMAP
007BBB30
0A7662C2
58597957
B14BA648
C08C8076
B2C1D3C1
5B103B40
04BBA300
ENDCHAR
STARTCHAR macron
ENCODING 175
SWIDTH 392 0
DWIDTH 5 0
BBX 5 1 0 7
BITMAP
1ABB90
ENDCHAR
STARTCHAR degree
ENCODING 176
SWIDTH 405 0
DWIDTH 5 0
BBX 5 4 1 5
BITMAP
09CB00
7B0E30
986D00
3A9200
ENDCHAR
STARTCHAR plusminus
ENCODING 177
SWIDTH 617 0
DWIDTH 7 0
BBX 7 8 0 0
BITMAP
00082000
000A3000
000A3000
1BBECB70
000A3000
00092000
00000000
1BBBBB70
ENDCHAR
STARTCHAR twosuperior
ENCODING 178
SWIDTH 458 0
DWIDTH 6 0
BBX 5 6 1 3
BITMAP
06CC40
0F37A0
084E50
04D700
6D3100
B8B800
ENDCHAR
STARTCHAR threesuperior
ENCODING 179
SWIDTH 430 0
DWIDTH 5 0
BBX 5 7 1 2
BITMAP
04CD40
0C3890
074D60
04E700
419A00
F1B700
797000
ENDCHAR
STARTCHAR acute
ENCODING 180
SWIDTH 322 0
DWIDTH 4 0
BBX 3 3 1 7
BITMAP
0670
1D70
9700
ENDCHAR
STARTCHAR mu
ENCODING 181
SWIDTH 618 0
DWIDTH 7 0
BBX 8 9 -1 -3
BITMAP
000A703D
004F20C9
00C906F2
03F31EC0
09F3AB92
0DDC26E5
2F000000
4C000000
4A000000
ENDCHAR
STARTCHAR paragraph
ENCODING 182
SWIDTH 739 0
DWIDTH 9 0
BBX 11 11 0 -1
BITMAP
000038BCDB10
000AFFA2F100
007FFF36D000
00AFFE099000
006FFB0D5000
0005F82F1000
0003F46A0000
0007E0B50000
3E3C71E10000
9A4D16800000
4CA209100000
ENDCHAR
STARTCHAR periodcentered
ENCODING 183
SWIDTH 353 0
DWIDTH 4 0
BBX 3 2 1 3
BITMAP
6E30
4B10
ENDCHAR
STARTCHAR cedilla
ENCODING 184
SWIDTH 301 0
DWIDTH 4 0
BBX 3 3 0 -3
BITMAP
0470
04C0
1D60
ENDCHAR
STARTCHAR onesuperior
ENCODING 185
SWIDTH 403 0
DWIDTH 5 0
BBX 4 6 1 3
BITMAP
01BA
3CEA
01E4
05D0
0C50
5900
ENDCHAR
STARTCHAR ordmasculine
ENCODING 186
SWIDTH 498 0
DWIDTH 6 0
BBX 5 6 1 3
BITMAP
01AC50
0C84E0
6D05E0
A909A0
A84E30
3BB400
ENDCHAR
STARTCHAR guillemotright
ENCODING 187
SWIDTH 665 0
DWIDTH 8 0
BBX 8 5 0 1
BITMAP
07A07900
00BA1BA0
006E27E2
0A92A910
22022000
ENDCHAR
STARTCHAR onequarter
ENCODING 188
SWIDTH 988 0
DWIDTH 12 0
BBX 10 10 1 0
BITMAP
0000002400
02D700C500
6CF607B000
13E11E3500
0990984E00
2E13D1A948
740B53E1A8
005B03CCFA
01D3000890
0780000B10
ENDCHAR
STARTCHAR onehalf
ENCODING 189
SWIDTH 988 0
DWIDTH 12 0
BBX 11 10 1 0
BITMAP
000000680000
01C702E10000
4DF60A700000
34E13D000000
0890B53CC900
1E15C0791F10
740D40009C00
006A0009D200
01D201C91000
077008EBC200
ENDCHAR
STARTCHAR threequarters
ENCODING 190
SWIDTH 1007 0
DWIDTH 12 0
BBX 12 10 0 0
BITMAP
000000005100
00ACB104D000
04C1F30C4000
005B906B3200
017E21E2A710
692E2982E2E1
2A943D1974D0
0000B507BEB0
0005B0001D00
000C20007400
ENDCHAR
STARTCHAR questiondown
ENCODING 191
SWIDTH 516 0
DWIDTH 6 0
BBX 6 9 0 -2
BITMAP
0002E6
0002C5
000150
001B60
03DB00
4E8000
C72E20
D24E10
5CB400
ENDCHAR
STARTCHAR Agrave
ENCODING 192
SWIDTH 615 0
DWIDTH 7 0
BBX 9 12 -1 0
BITMAP
0000003300
0000009C00
0000000520
0000007CA0
00000A6C60
0000964F10
0005A0AA00
005EDDFE40
01B825F200
02E107C000
0C7009A000
BA0005E700
ENDCHAR
STARTCHAR Aacute
ENCODING 193
SWIDTH 615 0
DWIDTH 7 0
BBX 10 12 -1 0
BITMAP
0000000063
00000003E4
0000000520
0000007CA0
00000A6C60
0000964F10
0005A0AA00
005EDDFE40
01B825F200
02E107C000
0C7009A000
BA0005E700
ENDCHAR
STARTCHAR Acircumflex
ENCODING 194
SWIDTH 615 0
DWIDTH 7 0
BBX 10 12 -1 0
BITMAP
0000000360
0000006CE2
0000026043
0000007CA0
00000A6C60
0000964F10
0005A0AA00
005EDDFE40
01B825F200
02E107C000
0C7009A000
BA0005E700
ENDCHAR
STARTCHAR Atilde
ENCODING 195
SWIDTH 615 0
DWIDTH 7 0
BBX 10 12 -1 0
BITMAP
0000009B27
00000526B5
0000000000
0000007CA0
00000A6C60
0000964F10
0005A0AA00
005EDDFE40
01B825F200
02E107C000
0C7009A000
BA0005E700
ENDCHAR
STARTCHAR Adieresis
ENCODING 196
SWIDTH 615 0
DWIDTH 7 0
BBX 10 12 -1 0
BITMAP
0000017136
000006F4AE
0000002012
0000006CA0
00000A6C60
0000964F10
0005A0AA00
005EDDFE40
01C825F200
02E107C000
0C7009B200
AA0005E800
ENDCHAR
STARTCHAR Aring
ENCODING 197
SWIDTH 615 0
DWIDTH 7 0
BBX 10 12 -1 0
BITMAP
0000001AB2
0000009797
000000B5C4
000000BFF0
00001BAC60
0000B82E10
0007B09A00
008EBBFC30
00B505E000
03D008B000
1C6009A000
B90005E700
ENDCHAR
STARTCHAR AE
ENCODING 198
SWIDTH 878 0
DWIDTH 11 0
BBX 13 9 -1 0
BITMAP
0000008BDCDB20
00001B69E40960
0000A81F607F20
0006C02F20A500
007EBBCFD80000
00C6008E400000
05E000E7014000
1D6000F84C8000
AA00006EE91000
ENDCHAR
STARTCHAR Ccedilla
ENCODING 199
SWIDTH 533 0
DWIDTH 6 0
BBX 8 12 0 -3
BITMAP
0003BCA0
005E50B4
02E605F2
0AC01F80
1F600100
4F200000
5F000000
3F305500
08ECA200
00B20000
05E10000
04400000
ENDCHAR
STARTCHAR Egrave
ENCODING 200
SWIDTH 509 0
DWIDTH 6 0
BBX 7 12 0 0
BITMAP
00005100
0000D700
00001600
0019DB80
00CB11E0
06E12CA0
09A04910
04D84000
08E72000
4F400000
7E01C200
1BCC6000
ENDCHAR
STARTCHAR Eacute
ENCODING 201
SWIDTH 509 0
DWIDTH 6 0
BBX 8 12 0 0
BITMAP
00000081
000007D1
00000610
0019DB80
00CB11E0
06E12CA0
09A04910
04D84000
08E72000
4F400000
7E01C200
1BCC6000
ENDCHAR
STARTCHAR Ecircumflex
ENCODING 202
SWIDTH 509 0
DWIDTH 6 0
BBX 8 12 0 0
BITMAP
00000530
00019CC0
00044061
0019DB80
00CB11E0
06E12CA0
09A04910
04D84000
08E72000
4F400000
7E01C200
1BCC6000
ENDCHAR
STARTCHAR Edieresis
ENCODING 203
SWIDTH 509 0
DWIDTH 6 0
BBX 8 12 0 0
BITMAP
00036054
000AE0E9
00012021
0019DB80
00CB11E0
06E12CA0
09A04910
04D84000
08E72000
4F400000
7E01C200
1BCC6000
ENDCHAR
STARTCHAR Igrave
ENCODING 204
SWIDTH 327 0
DWIDTH 4 0
BBX 6 12 -1 0
BITMAP
000330
0008C0
000053
008DC1
0013F2
0006E0
000AA0
000E60
005E10
00B900
04E100
1C4000
ENDCHAR
STARTCHAR Iacute
ENCODING 205
SWIDTH 327 0
DWIDTH 4 0
BBX 7 12 -1 0
BITMAP
00000630
00002E40
00005300
008DC100
0013F200
0006E000
000AA000
000E6000
005E1000
00B90000
04E10000
1C400000
ENDCHAR
STARTCHAR Icircumflex
ENCODING 206
SWIDTH 327 0
DWIDTH 4 0
BBX 7 12 -1 0
BITMAP
00002700
0005CE30
00161440
008DC100
0013F200
0006E000
000AA000
000E6000
005E1000
00B90000
04E10000
1C400000
ENDCHAR
STARTCHAR Idieresis
ENCODING 207
SWIDTH 327 0
DWIDTH 4 0
BBX 8 12 -1 0
BITMAP
00171360
004F49E1
00030120
008DC100
0013F200
0006E000
000AA000
000E6000
005E1000
00B90000
04E10000
1C400000
ENDCHAR
STARTCHAR Eth
ENCODING 208
SWIDTH 630 0
DWIDTH 8 0
BBX 8 9 0 0
BITMAP
07CCBB50
045602E4
00DA00A9
7EFEA0A9
1CA101E6
1F5008E1
5F105F40
7C07E500
3CCA2000
ENDCHAR
STARTCHAR Ntilde
ENCODING 209
SWIDTH 708 0
DWIDTH 9 0
BBX 10 11 0 0
BITMAP
000007AB93
0000000000
0007E107D1
004EF003F4
00D7E004F1
06A5F008A0
0C44F20D20
2E01F45900
7A00D8C100
A7007E9000
A4001C4000
ENDCHAR
STARTCHAR Ograve
ENCODING 210
SWIDTH 655 0
DWIDTH 8 0
BBX 8 12 0 0
BITMAP
00000510
00000C80
00000161
0002ACD4
003E705D
01E8003F
08E1006E
0E7000BA
2F3003F4
3F000CA0
1F109C10
06CC9100
ENDCHAR
STARTCHAR Oacute
ENCODING 211
SWIDTH 655 0
DWIDTH 8 0
BBX 9 12 0 0
BITMAP
0000000810
0000006E10
0000006100
0002ACD400
003E705D00
01E8003F00
08E1006E00
0E7000BA00
2F3003F400
3F000CA000
1F109C1000
06CC910000
ENDCHAR
STARTCHAR Ocircumflex
ENCODING 212
SWIDTH 655 0
DWIDTH 8 0
BBX 9 12 0 0
BITMAP
0000005400
000018CD00
0000350620
0002ACD400
003E705D00
01E8003F00
08E1006E00
0E7000BA00
2F3003F400
3F000CA000
1F109C1000
06CC910000
ENDCHAR
STARTCHAR Otilde
ENCODING 213
SWIDTH 655 0
DWIDTH 8 0
BBX 9 12 0 0
BITMAP
00002AA070
0000719B30
0000000000
0002ACD400
003E705D00
01E8003F00
08E1006E00
0E7000BA00
2F3003F400
3F000CA000
1F109C1000
06CC910000
ENDCHAR
STARTCHAR Odieresis
ENCODING 214
SWIDTH 655 0
DWIDTH 8 0
BBX 9 12 0 0
BITMAP
0000360540
00009E1DB0
0000120210
0002ACD400
003E705D00
01E8003F00
08E1006E00
0E7000BA00
2F3003F400
3F000CA000
1F109C1000
06CC910000
ENDCHAR
STARTCHAR multiply
ENCODING 215
SWIDTH 573 0
DWIDTH 7 0
BBX 6 5 1 2
BITMAP
8602C1
1C6C40
02F700
1C7D30
9603C0
ENDCHAR
STARTCHAR Oslash
ENCODING 216
SWIDTH 655 0
DWIDTH 8 0
BBX 8 11 1 -1
BITMAP
000000B7
0018DED0
01BB2CE4
09D194D6
3F5391F5
8D0A15F1
C8650CA0
D7A06E20
BE35E400
6EBB3000
A1000000
ENDCHAR
STARTCHAR Ugrave
ENCODING 217
SWIDTH 624 0
DWIDTH 8 0
BBX 9 12 0 0
BITMAP
0000330000
00007D1000
0000053000
009D001D30
007D007D00
00D801E800
04F207F200
0BA01EC000
2F308F8000
8C03AE4000
B9193F1000
7D811DB200
ENDCHAR
STARTCHAR Uacute
ENCODING 218
SWIDTH 624 0
DWIDTH 8 0
BBX 9 12 0 0
BITMAP
0000005400
000002E500
0000043000
009D001D30
007D007D00
00D801E800
04F207F200
0BA01EC000
2F308F8000
8C03AE4000
B9193F1000
7D811DB200
ENDCHAR
STARTCHAR Ucircumflex
ENCODING 219
SWIDTH 624 0
DWIDTH 8 0
BBX 9 12 0 0
BITMAP
0000027000
00005CE300
0001614400
009D001D30
007D007D00
00D801E800
04F207F200
0BA01EC000
2F308F8000
8C03AE4000
B9193F1000
7D811DB200
ENDCHAR
STARTCHAR Udieresis
ENCODING 220
SWIDTH 624 0
DWIDTH 8 0
BBX 9 12 0 0
BITMAP
0001723600
0004F59E10
0000301200
009D001D30
007D007D00
00D801E800
04F207F200
0BA01EC000
2F308F8000
8C03AE4000
B9193F1000
7D811DB200
ENDCHAR
STARTCHAR Yacute
ENCODING 221
SWIDTH 580 0
DWIDTH 7 0
BBX 9 15 0 -3
BITMAP
0000006300
000003E400
0000052000
009D001D20
007D007D00
00D801E600
05F208F100
0B901EA000
3F309F5000
8C03BE0000
C819980000
7D83E10000
000C600000
00A9000000
2B70000000
ENDCHAR
STARTCHAR Thorn
ENCODING 222
SWIDTH 527 0
DWIDTH 6 0
BBX 8 9 -1 0
BITMAP
01DE8000
001AA000
000DDA60
002F30D5
006D01E6
00C83BC1
03FCA610
0B800000
6A000000
ENDCHAR
STARTCHAR germandbls
ENCODING 223
SWIDTH 520 0
DWIDTH 6 0
BBX 8 12 -1 -2
BITMAP
00007CA1
0006C1A6
000E40D5
005E07D0
009A3D20
00D6A700
02F29C00
06D02E70
0A9936B0
0E58DA30
5E000000
43000000
ENDCHAR
STARTCHAR agrave
ENCODING 224
SWIDTH 541 0
DWIDTH 7 0
BBX 7 10 0 -1
BITMAP
0007A000
0006B000
00006000
007CAC50
08C17E10
3F30C800
8C04F300
8B1BF000
3DA3ED00
00001000
ENDCHAR
STARTCHAR aacute
ENCODING 225
SWIDTH 541 0
DWIDTH 7 0
BBX 7 11 0 -1
BITMAP
00001300
00007C00
0002D400
00042000
007CAC50
08C17E10
3F30C800
8C04F300
8B1BF000
3DA3ED00
00001000
ENDCHAR
STARTCHAR acircumflex
ENCODING 226
SWIDTH 541 0
DWIDTH 7 0
BBX 7 10 0 -1
BITMAP
00007C00
002A8E20
00430530
007CAC50
08C17E10
3F30C800
8C04F300
8B1BF000
3DA3ED00
00001000
ENDCHAR
STARTCHAR atilde
ENCODING 227
SWIDTH 541 0
DWIDTH 7 0
BBX 7 10 0 -1
BITMAP
002AC180
00618B30
00000000
007CAC50
08C17E10
3F30C800
8C04F300
8B1BF000
3DA3ED00
00001000
ENDCHAR
STARTCHAR adieresis
ENCODING 228
SWIDTH 541 0
DWIDTH 7 0
BBX 7 10 0 -1
BITMAP
007E1BB0
00490760
00000000
007CAC50
08C17E10
3F30C800
8C04F300
8B1BF000
3DA3ED00
00001000
ENDCHAR
STARTCHAR aring
ENCODING 229
SWIDTH 541 0
DWIDTH 7 0
BBX 7 10 0 -1
BITMAP
0008BD20
000AB900
00000000
007CAC50
08C17E10
3F30C800
8C04F300
8B1BF000
3DA3ED00
00001000
ENDCHAR
STARTCHAR ae
ENCODING 230
SWIDTH 769 0
DWIDTH 9 0
BBX 9 6 0 0
BITMAP
007CACCD90
08B17F46F0
3F20CA1DB0
8C04FCC810
8B1BE60320
3DA25DBA10
ENDCHAR
STARTCHAR ccedilla
ENCODING 231
SWIDTH 465 0
DWIDTH 6 0
BBX 6 9 0 -3
BITMAP
008CC3
0AC1B6
4F23E2
8C0000
8C0150
2CCB20
01B000
0AB000
062000
ENDCHAR
STARTCHAR egrave
ENCODING 232
SWIDTH 471 0
DWIDTH 6 0
BBX 6 9 0 0
BITMAP
000D30
000D40
000240
007CD2
08C1B6
2F46E2
7FAA30
6D0150
1BCC50
ENDCHAR
STARTCHAR eacute
ENCODING 233
SWIDTH 471 0
DWIDTH 6 0
BBX 6 10 0 0
BITMAP
000030
0000E5
0008B0
001500
007CD2
08C1B6
2F46E2
7FAA30
6D0150
1BCC50
ENDCHAR
STARTCHAR ecircumflex
ENCODING 234
SWIDTH 471 0
DWIDTH 6 0
BBX 6 9 0 0
BITMAP
0001C5
005C9A
016116
007CD2
08C1B6
2F46E2
7FAA30
6D0150
1BCC50
ENDCHAR
STARTCHAR edieresis
ENCODING 235
SWIDTH 471 0
DWIDTH 6 0
BBX 7 9 0 0
BITMAP
00D94E40
00942A20
00000000
007CD200
08C1B600
2F45F300
7FBB3000
6D004000
1BCC5000
ENDCHAR
STARTCHAR igrave
ENCODING 236
SWIDTH 286 0
DWIDTH 3 0
BBX 4 9 0 0
BITMAP
03E0
02E1
0042
08E0
07C0
0C50
4D00
9A10
7E40
ENDCHAR
STARTCHAR iacute
ENCODING 237
SWIDTH 286 0
DWIDTH 3 0
BBX 5 10 0 0
BITMAP
000300
003F20
00C800
034000
08E000
07C000
0C5000
4D0000
9A1000
7E4000
ENDCHAR
STARTCHAR icircumflex
ENCODING 238
SWIDTH 286 0
DWIDTH 3 0
BBX 5 9 0 0
BITMAP
003D20
17BB70
250250
08E000
07C000
0C5000
4D0000
9A1000
7E4000
ENDCHAR
STARTCHAR idieresis
ENCODING 239
SWIDTH 286 0
DWIDTH 3 0
BBX 6 9 0 0
BITMAP
3E57E1
1A2490
000000
08E000
07C000
0C5000
4D0000
9A1000
7E4000
ENDCHAR
STARTCHAR eth
ENCODING 240
SWIDTH 524 0
DWIDTH 6 0
BBX 8 10 0 0
BITMAP
00005600
00000D72
00039D71
00000B50
007CBE40
08C16F10
2F30AB00
7D02F400
7C0B9000
2DC80000
ENDCHAR
STARTCHAR ntilde
ENCODING 241
SWIDTH 561 0
DWIDTH 7 0
BBX 7 9 0 0
BITMAP
002AC180
00618B30
00000000
08C1AD10
07C83F30
0BC19D00
2F41E600
9B03F100
C402E900
ENDCHAR
STARTCHAR ograve
ENCODING 242
SWIDTH 514 0
DWIDTH 6 0
BBX 6 9 0 0
BITMAP
0005C0
0004D0
000051
008CD4
09C19A
3F30AA
7D01F6
8B0AC0
2CCA10
ENDCHAR
STARTCHAR oacute
ENCODING 243
SWIDTH 514 0
DWIDTH 6 0
BBX 6 10 0 0
BITMAP
000003
00006E
0001D5
000420
008CD4
09C19A
3F30AA
7D01F6
8B0AC0
2CCA10
ENDCHAR
STARTCHAR ocircumflex
ENCODING 244
SWIDTH 514 0
DWIDTH 6 0
BBX 7 9 0 0
BITMAP
00005D00
00199D40
00440430
008CD400
09C19A00
3F30AA00
7D01F600
8B0AC000
2CCA1000
ENDCHAR
STARTCHAR otilde
ENCODING 245
SWIDTH 514 0
DWIDTH 6 0
BBX 7 9 0 0
BITMAP
001AD280
00516B40
00000000
008CD400
09C19A00
3F30AA00
7D01F600
8B0AC000
2CCA1000
ENDCHAR
STARTCHAR odieresis
ENCODING 246
SWIDTH 514 0
DWIDTH 6 0
BBX 7 9 0 0
BITMAP
005E3AD0
003A1670
00000000
008CD400
09C19A00
3F30AA00
7D01F600
8B0AC000
2CCA1000
ENDCHAR
STARTCHAR divide
ENCODING 247
SWIDTH 617 0
DWIDTH 7 0
BBX 6 7 1 1
BITMAP
006500
00A800
000000
ABBBB8
001000
00E800
005200
ENDCHAR
STARTCHAR oslash
ENCODING 248
SWIDTH 514 0
DWIDTH 6 0
BBX 7 8 0 -1
BITMAP
00002D20
008CE800
09C4DA00
3F489A00
7D63E600
7C6AC000
2FDA1000
48000000
ENDCHAR
STARTCHAR ugrave
ENCODING 249
SWIDTH 553 0
DWIDTH 7 0
BBX 7 9 0 0
BITMAP
0002E100
0001E200
00003300
07E00B60
07D05F20
0D71D900
4E19E300
AA87F200
7E61EA00
ENDCHAR
STARTCHAR uacute
ENCODING 250
SWIDTH 553 0
DWIDTH 7 0
BBX 7 10 0 0
BITMAP
00000300
00002F30
0000B900
00024000
07E00B60
07D04F20
0D80CA00
4F27E400
AB48F000
7D61E900
ENDCHAR
STARTCHAR ucircumflex
ENCODING 251
SWIDTH 553 0
DWIDTH 7 0
BBX 7 9 0 0
BITMAP
00003D30
0007BA80
00260250
07E00B60
07D04F20
0D80CA00
4F27E400
AB48F000
7D61E900
ENDCHAR
STARTCHAR udieresis
ENCODING 252
SWIDTH 553 0
DWIDTH 7 0
BBX 8 9 0 0
BITMAP
002E66E2
001A3390
00000000
07E00B60
07D04F20
0D80CA00
4F27E400
AB48F000
7D61E900
ENDCHAR
STARTCHAR yacute
ENCODING 253
SWIDTH 549 0
DWIDTH 7 0
BBX 7 14 0 -4
BITMAP
00001300
00006D00
0002D500
00042000
06E10A70
06E03F40
0C90BE00
3F35F900
9C39E300
7D75C000
000B6000
006C0000
17D20000
15100000
ENDCHAR
STARTCHAR thorn
ENCODING 254
SWIDTH 552 0
DWIDTH 7 0
BBX 8 13 -1 -3
BITMAP
0001D000
0005D000
0009A000
000E5000
004E8CB0
008F62F2
00DA04F1
03F209B0
07E05E30
0CBCB300
4F100000
AA000000
D3000000
ENDCHAR
STARTCHAR ydieresis
ENCODING 255
SWIDTH 549 0
DWIDTH 7 0
BBX 7 13 0 -4
BITMAP
006E2AC0
00390770
00000000
06E10A70
06E03F40
0C90BE00
3F35F900
9C39E300
7D75C000
000B6000
006C0000
17D20000
15100000
ENDCHAR
STARTCHAR Amacron
ENCODING 256
SWIDTH 615 0
DWIDTH 7 0
BBX 10 11 -1 0
BITMAP
000002BBB7
0000000000
0000007CA0
00000A6C60
0000964F10
0005A0AA00
005EDDFE40
01B825F200
02E107C000
0C7009A000
BA0005E700
ENDCHAR
STARTCHAR amacron
ENCODING 257
SWIDTH 543 0
DWIDTH 7 0
BBX 7 9 0 -1
BITMAP
004BBB40
00000000
007CAC50
08C17E10
3F30C900
7D04F300
8B1BF000
3DA3ED00
00001000
ENDCHAR
STARTCHAR Abreve
ENCODING 258
SWIDTH 615 0
DWIDTH 7 0
BBX 10 12 -1 0
BITMAP
0000004205
0000007CA4
0000000000
0000006CA0
00000A6C60
0000964F10
0005A0AA00
005EDDFE40
01C825F200
02E107C000
0C7009B200
AA0005E800
ENDCHAR
STARTCHAR abreve
ENCODING 259
SWIDTH 543 0
DWIDTH 7 0
BBX 7 10 0 -1
BITMAP
000D2370
0008C910
00000000
007CAC50
08C17E10
3F30C900
7D04F300
8B1BF000
3DA3ED00
00001000
ENDCHAR
STARTCHAR Aogonek
ENCODING 260
SWIDTH 615 0
DWIDTH 7 0
BBX 9 12 -1 -3
BITMAP
0000006CA0
00000A6C60
0000964F10
0005A0AA00
005EDDFE40
01C825F200
02E107B000
0C7009B200
AA0005F800
0000086000
00004E0000
00003C6000
ENDCHAR
STARTCHAR aogonek
ENCODING 261
SWIDTH 541 0
DWIDTH 7 0
BBX 7 9 0 -3
BITMAP
007CAC50
08C17E10
3F30C800
8C04F300
8B1BF000
3DA3EC00
0002B100
000C6000
000AA100
ENDCHAR
STARTCHAR Cacute
ENCODING 262
SWIDTH 533 0
DWIDTH 6 0
BBX 8 12 0 0
BITMAP
00000018
0000008C
00000161
0003BCA0
005E40C3
02F505F2
0AB02F80
1F500100
4F100000
6F000000
3F305400
08DCA200
ENDCHAR
STARTCHAR cacute
ENCODING 263
SWIDTH 468 0
DWIDTH 6 0
BBX 7 10 0 0
BITMAP
00000310
00000D60
00008B10
00015000
008CC300
0AC1A700
3F32E200
8D000000
8C015000
2CCA2000
ENDCHAR
STARTCHAR Ccircumflex
ENCODING 264
SWIDTH 533 0
DWIDTH 6 0
BBX 9 12 0 0
BITMAP
0000006300
00002ACB00
0000440610
0003BCA000
005E40C300
02F505F200
0AB02F8000
1F50010000
4F10000000
6F00000000
3F30540000
08DCA20000
ENDCHAR
STARTCHAR ccircumflex
ENCODING 265
SWIDTH 468 0
DWIDTH 6 0
BBX 7 9 0 0
BITMAP
00007C00
002A8E20
00430530
008CC300
0AC1A700
3F32E200
8D000000
8C015000
2CCA2000
ENDCHAR
STARTCHAR Cdotaccent
ENCODING 266
SWIDTH 533 0
DWIDTH 6 0
BBX 8 12 0 0
BITMAP
00000450
00000CB0
00000110
0003BCA0
005E40C3
02F505F2
0AB02F80
1F500100
4F100000
6F000000
3F305400
08DCA200
ENDCHAR
STARTCHAR cdotaccent
ENCODING 267
SWIDTH 468 0
DWIDTH 6 0
BBX 6 9 0 0
BITMAP
0002E6
0001A3
000000
008CC3
0AC1A7
3F32E2
8D0000
8C0150
2CCA20
ENDCHAR
STARTCHAR Ccaron
ENCODING 268
SWIDTH 533 0
DWIDTH 6 0
BBX 9 12 0 0
BITMAP
0000260130
00001EAC40
0000044000
0003BCA000
005E40C300
02F505F200
0AB02F8000
1F50010000
4F10000000
6F00000000
3F30540000
08DCA20000
ENDCHAR
STARTCHAR ccaron
ENCODING 269
SWIDTH 468 0
DWIDTH 6 0
BBX 8 9 0 0
BITMAP
000951B2
0006DC50
00014000
008CC300
0AC1A700
3F32E200
8D000000
8C015000
2CCA2000
ENDCHAR
STARTCHAR Dcaron
ENCODING 270
SWIDTH 630 0
DWIDTH 8 0
BBX 8 12 0 0
BITMAP
00006205
00009CB8
00001610
06CCBB60
046401D5
009E108A
02F6009B
08D000D8
0D8006E1
3F204E50
6D06E600
2CCA2000
ENDCHAR
STARTCHAR dcaron
ENCODING 271
SWIDTH 557 0
DWIDTH 7 0
BBX 10 10 0 0
BITMAP
000000796B
000000E679
000004E1B2
000009A000
005CBD5000
06D15F1000
1E409B0000
6E01E70000
7D0AF40000
2DB5AB3000
ENDCHAR
STARTCHAR Dcroat
ENCODING 272
SWIDTH 630 0
DWIDTH 8 0
BBX 8 9 0 0
BITMAP
06CCBB50
076102E4
009D00A9
02F500A9
7FFFA1E6
0E7008E1
4F105F40
7C07E500
3DCA2000
ENDCHAR
STARTCHAR dcroat
ENCODING 273
SWIDTH 557 0
DWIDTH 7 0
BBX 8 10 0 0
BITMAP
00000089
0000BDFB
000006D0
00000980
005CBE40
06D15E00
1E409B00
6E01E700
7D0AF400
2DB5AB30
ENDCHAR
STARTCHAR Emacron
ENCODING 274
SWIDTH 509 0
DWIDTH 6 0
BBX 8 11 0 0
BITMAP
0006BBB3
00000000
0019DB80
00CB11E0
06E12CA0
09A04910
04D84000
08E72000
4F400000
7E01C200
1BCC6000
ENDCHAR
STARTCHAR emacron
ENCODING 275
SWIDTH 471 0
DWIDTH 6 0
BBX 6 8 0 0
BITMAP
00ABBA
000000
007CD2
08C1B6
2F46E2
7FAA30
6D0150
1BCC50
ENDCHAR
STARTCHAR Ebreve
ENCODING 276
SWIDTH 509 0
DWIDTH 6 0
BBX 8 12 0 0
BITMAP
00006023
0001BC91
00000000
0019DB80
00CB11E0
06E12CA0
09A04910
04D84000
08E72000
4F400000
7E01C200
1BCC6000
ENDCHAR
STARTCHAR ebreve
ENCODING 277
SWIDTH 471 0
DWIDTH 6 0
BBX 7 9 0 0
BITMAP
00590810
002CB400
00000000
007CD200
08C1B600
2F46E200
7FAA3000
6D015000
1BCC5000
ENDCHAR
STARTCHAR Edotaccent
ENCODING 278
SWIDTH 509 0
DWIDTH 6 0
BBX 7 12 0 0
BITMAP
00004500
0000BC00
00001100
0019DB80
00CB11E0
06E12CA0
09A04910
04D84000
08E72000
4F400000
7E01C200
1BCC6000
ENDCHAR
STARTCHAR edotaccent
ENCODING 279
SWIDTH 471 0
DWIDTH 6 0
BBX 6 9 0 0
BITMAP
0008E0
000580
000000
007CD2
08C1B6
2F46E2
7FAA30
6D0150
1BCC50
ENDCHAR
STARTCHAR Eogonek
ENCODING 280
SWIDTH 509 0
DWIDTH 6 0
BBX 7 12 0 -3
BITMAP
0019DB80
00CB11E0
06E12CA0
09A04910
04D84000
08E72000
4F400000
7E01C200
1BCE7000
01C30000
09800000
08B30000
ENDCHAR
STARTCHAR eogonek
ENCODING 281
SWIDTH 471 0
DWIDTH 6 0
BBX 6 9 0 -3
BITMAP
006CD3
07C1B7
2F45E3
7FAA30
6D0150
1BCE60
00B500
07B000
06B400
ENDCHAR
STARTCHAR Ecaron
ENCODING 282
SWIDTH 509 0
DWIDTH 6 0
BBX 8 12 0 0
BITMAP
00026014
0001DAC4
00003400
0019DB80
00CB11E0
06E12CA0
09A04910
04D84000
08E72000
4F400000
7E01C200
1BCC6000
ENDCHAR
STARTCHAR ecaron
ENCODING 283
SWIDTH 471 0
DWIDTH 6 0
BBX 7 9 0 0
BITMAP
002C1590
000CB910
00032000
007CD200
08C1B600
2F46E200
7FAA3000
6D015000
1BCC5000
ENDCHAR
STARTCHAR Gcircumflex
ENCODING 284
SWIDTH 598 0
DWIDTH 7 0
BBX 9 12 0 0
BITMAP
0000006300
00002ACB00
0000531610
0003BCA000
005E50B400
02E605F200
0AC01F8000
1F60010000
4F11ED9000
5F00680000
3F20A20000
08DB400000
ENDCHAR
STARTCHAR gcircumflex
ENCODING 285
SWIDTH 526 0
DWIDTH 6 0
BBX 7 13 0 -4
BITMAP
00006D00
00199D30
00440430
007CB730
08C15F20
2F309B00
7E02F700
7C0BF200
3EB9C000
000C5000
006C0000
18C20000
03000000
ENDCHAR
STARTCHAR Gbreve
ENCODING 286
SWIDTH 598 0
DWIDTH 7 0
BBX 9 12 0 0
BITMAP
0000160230
00001BC810
0000000000
0003BCA000
005E50B400
02E605F200
0AC01F8000
1F60010000
4F11ED9000
5F00680000
3F20A20000
08DB400000
ENDCHAR
STARTCHAR gbreve
ENCODING 287
SWIDTH 526 0
DWIDTH 6 0
BBX 7 13 0 -4
BITMAP
000C2280
0007C910
00000000
007CB730
08C15F20
2F309B00
7E02F700
7C0BF200
3EB9C000
000C5000
006C0000
18C20000
03000000
ENDCHAR
STARTCHAR Gdotaccent
ENCODING 288
SWIDTH 598 0
DWIDTH 7 0
BBX 8 12 0 0
BITMAP
00000550
00000DB0
00000210
0003BCA0
005E50B4
02E605F2
0AC01F80
1F600100
4F11ED90
5F006800
3F20A200
08DB4000
ENDCHAR
STARTCHAR gdotaccent
ENCODING 289
SWIDTH 526 0
DWIDTH 6 0
BBX 7 13 0 -4
BITMAP
0001E700
0000A300
00000000
007CB730
08C15F20
2F309B00
7E02F700
7C0BF200
3EB9C000
000C5000
006C0000
18C20000
03000000
ENDCHAR
STARTCHAR Gcommaaccent
ENCODING 290
SWIDTH 598 0
DWIDTH 7 0
BBX 8 12 0 -3
BITMAP
0003BCA0
005E50B4
02E605F2
0AC01F80
1F600100
4F11ED90
5F006800
3F20A200
08DB4000
03400000
08B00000
0A200000
ENDCHAR
STARTCHAR gcommaaccent
ENCODING 291
SWIDTH 526 0
DWIDTH 6 0
BBX 7 13 0 -4
BITMAP
00006700
0000F500
00001000
007CB730
08C15F20
2F309B00
7E02F700
7C0BF200
3EB9C000
000C5000
006C0000
18C20000
03000000
ENDCHAR
STARTCHAR Hcircumflex
ENCODING 292
SWIDTH 668 0
DWIDTH 8 0
BBX 10 12 -1 0
BITMAP
0000003600
000006CE20
0000260430
00ADC000B5
0016E001F4
0009B004E1
000D8009A0
009FCACFA0
009C005D00
01E500B700
09C001F300
4C2001DA10
ENDCHAR
STARTCHAR hcircumflex
ENCODING 293
SWIDTH 555 0
DWIDTH 7 0
BBX 7 12 0 0
BITMAP
00025000
004DD000
07A1D300
005B0000
009B0000
00C70000
02F3AD10
07B85F20
0CC1BC00
3F32F500
9A05F000
D302E900
ENDCHAR
STARTCHAR Hbar
ENCODING 294
SWIDTH 668 0
DWIDTH 8 0
BBX 11 9 -1 0
BITMAP
00ADC000B500
0016E001F400
01BEEABCEA10
000D70099000
009FBABFB000
009C005D0000
01E500B80000
08C001F30000
4C2001DA1000
ENDCHAR
STARTCHAR hbar
ENCODING 295
SWIDTH 555 0
DWIDTH 7 0
BBX 7 10 0 0
BITMAP
003E0000
05DEB400
00A90000
00E40000
03E2AD10
08B84F20
0DC1AC00
4F31F500
AA05F100
D302E900
ENDCHAR
STARTCHAR Itilde
ENCODING 296
SWIDTH 327 0
DWIDTH 4 0
BBX 8 12 -1 0
BITMAP
0008C261
00436C50
00000000
008DC100
0013F200
0006E000
000AA000
000E6000
005E1000
00B90000
04E10000
1C400000
ENDCHAR
STARTCHAR itilde
ENCODING 297
SWIDTH 286 0
DWIDTH 3 0
BBX 6 9 0 0
BITMAP
08D362
334C60
000000
08E000
07C000
0C5000
4D0000
9A1000
7E4000
ENDCHAR
STARTCHAR Imacron
ENCODING 298
SWIDTH 327 0
DWIDTH 4 0
BBX 7 11 -1 0
BITMAP
002BBB70
00000000
008DC100
0013F200
0006E000
000AA000
000E6000
005E1000
00B90000
04E10000
1C400000
ENDCHAR
STARTCHAR imacron
ENCODING 299
SWIDTH 286 0
DWIDTH 3 0
BBX 5 8 0 0
BITMAP
3BBB60
000000
08E000
07C000
0C5000
4D0000
9A1000
7E4000
ENDCHAR
STARTCHAR Ibreve
ENCODING 300
SWIDTH 327 0
DWIDTH 4 0
BBX 7 12 -1 0
BITMAP
00042050
0007CA40
00000000
008DC100
0013F200
0006E000
000AA000
000E6000
005E1000
00B90000
04E10000
1C400000
ENDCHAR
STARTCHAR ibreve
ENCODING 301
SWIDTH 286 0
DWIDTH 3 0
BBX 5 9 0 0
BITMAP
086190
05CA20
000000
08E000
07C000
0C5000
4D0000
9A1000
7E4000
ENDCHAR
STARTCHAR Iogonek
ENCODING 302
SWIDTH 327 0
DWIDTH 4 0
BBX 7 12 -2 -3
BITMAP
0008DC10
00013F20
00006E00
0000AB00
0000E600
0004F100
000AA000
003E2000
01D60000
09500000
7A000000
7B300000
ENDCHAR
STARTCHAR iogonek
ENCODING 303
SWIDTH 297 0
DWIDTH 4 0
BBX 5 12 -1 -3
BITMAP
0009D0
000670
000000
006E10
005E00
00A800
01F200
06B000
06E600
059000
2E1000
2C7000
ENDCHAR
STARTCHAR Idotaccent
ENCODING 304
SWIDTH 327 0
DWIDTH 4 0
BBX 6 12 -1 0
BITMAP
000171
0006F3
000020
008DC1
0013F2
0006E0
000AA0
000E60
005E10
00B900
04E100
1C4000
ENDCHAR
STARTCHAR dotlessi
ENCODING 305
SWIDTH 286 0
DWIDTH 3 0
BBX 3 6 0 0
BITMAP
08E0
07C0
0C50
4D00
9A10
7E40
ENDCHAR
STARTCHAR IJ
ENCODING 306
SWIDTH 720 0
DWIDTH 9 0
BBX 10 12 -1 -3
BITMAP
008DC17DDA
0013F6E36E
0006E000AC
000AA000E8
000E6004F2
005E100AC0
00B9002F60
04E1008D00
1C4002F500
00000BB000
00008C1000
000A910000
ENDCHAR
STARTCHAR ij
ENCODING 307
SWIDTH 567 0
DWIDTH 7 0
BBX 7 12 0 -3
BITMAP
00BB09D0
00760670
00000000
08E04E40
07C02F30
0C504F10
4D008B00
9A10D600
7E44E100
000B7000
005C0000
05A10000
ENDCHAR
STARTCHAR Jcircumflex
ENCODING 308
SWIDTH 393 0
DWIDTH 5 0
BBX 9 15 -2 -3
BITMAP
0000005400
000019CC00
0000440610
0007DDB000
004D45F100
000009D000
00000D8000
00003F4000
00009D0000
0001E70000
0007E10000
001E600000
00AB000000
07D1000000
AA10000000
ENDCHAR
STARTCHAR jcircumflex
ENCODING 309
SWIDTH 282 0
DWIDTH 3 0
BBX 7 13 -2 -3
BITMAP
00001600
0003CF10
006B2A50
00000000
0009D000
0008C000
000A9000
000E5000
004E0000
00B90000
03E20000
0C600000
A6000000
ENDCHAR
STARTCHAR Kcommaaccent
ENCODING 310
SWIDTH 616 0
DWIDTH 7 0
BBX 9 12 -1 -3
BITMAP
01CD700A80
0019B00AA0
000C803F40
001F52D600
006F5C3000
00BCF40000
02F48E1000
0AB00DB000
5C1003DB20
0026000000
003F100000
0075000000
ENDCHAR
STARTCHAR kcommaaccent
ENCODING 311
SWIDTH 497 0
DWIDTH 6 0
BBX 6 13 0 -3
BITMAP
002D00
005D00
009A00
00D600
02F17D
07B0AC
0CAC81
3FE700
9A6E31
D30AE5
053000
0B7000
2A1000
ENDCHAR
STARTCHAR kgreenlandic
ENCODING 312
SWIDTH 497 0
DWIDTH 6 0
BBX 7 6 0 0
BITMAP
08C06D10
07C09D00
0CAAC200
3FE80000
9D6D1000
D50AC500
ENDCHAR
STARTCHAR Lacute
ENCODING 313
SWIDTH 517 0
DWIDTH 6 0
BBX 9 12 -1 0
BITMAP
0000000810
0000005E20
0000006100
00003CC400
0002E54A00
000AB0A900
002F5BE200
007E063000
00D8000000
03E1000000
0B84671000
2ECA9B7000
ENDCHAR
STARTCHAR lacute
ENCODING 314
SWIDTH 279 0
DWIDTH 3 0
BBX 6 12 0 0
BITMAP
000072
0003E3
000520
006800
00A800
00E400
05E000
0A9000
1E4000
5E0000
9A0000
6D5000
ENDCHAR
STARTCHAR Lcommaaccent
ENCODING 315
SWIDTH 517 0
DWIDTH 6 0
BBX 8 12 -1 -3
BITMAP
00003CC4
0002E54A
000AB0A9
002F5BE2
007E0630
00D80000
03E10000
0B846710
2ECA9B70
01610000
01F20000
06700000
ENDCHAR
STARTCHAR lcommaaccent
ENCODING 316
SWIDTH 279 0
DWIDTH 3 0
BBX 4 13 0 -3
BITMAP
005A
009B
00C7
01F3
06D0
0B80
1F30
5E00
9A00
6D50
3500
7B00
A300
ENDCHAR
STARTCHAR Lcaron
ENCODING 317
SWIDTH 517 0
DWIDTH 6 0
BBX 10 12 -1 0
BITMAP
0000000016
000000003F
0000000059
00003CC460
0002E54A00
000AB0A900
002F5BE200
007E063000
00D8000000
03E1000000
0B84671000
2ECA9B7000
ENDCHAR
STARTCHAR lcaron
ENCODING 318
SWIDTH 467 0
DWIDTH 6 0
BBX 7 10 0 0
BITMAP
005A0A80
009B0A60
00C72A00
01F30000
06D00000
0B800000
1F300000
5E000000
9A000000
6D500000
ENDCHAR
STARTCHAR Ldot
ENCODING 319
SWIDTH 668 0
DWIDTH 8 0
BBX 10 9 -1 0
BITMAP
00003CC400
0002E54A00
000AB0A900
002F5BE200
007E063381
00D80007E1
03E1000010
0B84671000
2ECA9B7000
ENDCHAR
STARTCHAR ldot
ENCODING 320
SWIDTH 489 0
DWIDTH 6 0
BBX 6 10 0 0
BITMAP
005A00
009B00
00C700
01F300
06D000
0B81E9
1F31A5
5E0000
9A0000
6D5000
ENDCHAR
STARTCHAR Lslash
ENCODING 321
SWIDTH 517 0
DWIDTH 6 0
BBX 8 9 -1 0
BITMAP
00003CC3
0002E54A
000AC099
002F67F4
007F1B70
08EEA100
06F20000
0B846610
2ECA9B70
ENDCHAR
STARTCHAR lslash
ENCODING 322
SWIDTH 279 0
DWIDTH 3 0
BBX 6 10 0 0
BITMAP
01C200
00BEA3
00A900
00E400
04E000
099000
0E4000
5E0000
8A0000
6D5000
ENDCHAR
STARTCHAR Nacute
ENCODING 323
SWIDTH 708 0
DWIDTH 9 0
BBX 10 12 0 0
BITMAP
0000000180
00000009B0
0000001500
0007E107D1
004EF003F4
00D7E004F1
06A5F008A0
0C44F20D20
2E01F45900
7A00D8C100
A7007E9000
A4001C4000
ENDCHAR
STARTCHAR nacute
ENCODING 324
SWIDTH 561 0
DWIDTH 7 0
BBX 7 10 0 0
BITMAP
00000300
00001F30
0000A900
00024000
08C1AD10
07C83F30
0BC19D00
2F41E600
9B03F100
C402E900
ENDCHAR
STARTCHAR Ncommaaccent
ENCODING 325
SWIDTH 708 0
DWIDTH 9 0
BBX 10 12 0 -3
BITMAP
0007E107D1
004EF003F4
00D7E004F1
06A5F008A0
0C44F20D20
2E01F45900
7A00D8C100
A7007E9000
A4001C4000
0006100000
001E400000
0049000000
ENDCHAR
STARTCHAR ncommaaccent
ENCODING 326
SWIDTH 561 0
DWIDTH 7 0
BBX 7 9 0 -3
BITMAP
08C1AD10
07C83F30
0BC19D00
2F41E600
9B03F100
C402E900
04400000
09A00000
1A200000
ENDCHAR
STARTCHAR Ncaron
ENCODING 327
SWIDTH 708 0
DWIDTH 9 0
BBX 10 12 0 0
BITMAP
0000035023
000002E9C3
0000005300
0007E107D1
004EF003F4
00D7E004F1
06A5F008A0
0C44F20D20
2E01F45900
7A00D8C100
A7007E9000
A4001C4000
ENDCHAR
STARTCHAR ncaron
ENCODING 328
SWIDTH 561 0
DWIDTH 7 0
BBX 8 9 0 0
BITMAP
000951A2
0005DB50
00014000
08C1AD10
07C83F30
0BC19D00
2F41E600
9B03F100
C402E900
ENDCHAR
STARTCHAR Eng
ENCODING 330
SWIDTH 698 0
DWIDTH 8 0
BBX 10 12 0 -3
BITMAP
0008E009C0
006ED005F2
01D8C005F0
0887D007B0
0E26F00C60
4C03F31E10
9800E77800
C5009DC100
B2002F5000
0000A90000
0008B00000
01B8000000
ENDCHAR
STARTCHAR eng
ENCODING 331
SWIDTH 561 0
DWIDTH 7 0
BBX 7 9 0 -3
BITMAP
08C1AD20
07C82F30
0BC15E00
2F40A900
9B02F400
D409C000
003F3000
00C70000
0A800000
ENDCHAR
STARTCHAR Omacron
ENCODING 332
SWIDTH 655 0
DWIDTH 8 0
BBX 9 11 0 0
BITMAP
00005BBB40
0000000000
0002ACD400
003E705D00
01E8003F00
08E1006E00
0E7000BA00
2F3003F400
3F000CA000
1F109C1000
06CC910000
ENDCHAR
STARTCHAR omacron
ENCODING 333
SWIDTH 514 0
DWIDTH 6 0
BBX 7 8 0 0
BITMAP
004BBB50
00000000
008CD400
09C19A00
3F30AA00
7D01F600
8B0AC000
2CCA1000
ENDCHAR
STARTCHAR Obreve
ENCODING 334
SWIDTH 655 0
DWIDTH 8 0
BBX 9 12 0 0
BITMAP
0000060140
00000AC920
0000000000
0002ACD400
003E705D00
01E8003F00
08E1006E00
0E7000BA00
2F3003F400
3F000CA000
1F109C1000
06CC910000
ENDCHAR
STARTCHAR obreve
ENCODING 335
SWIDTH 514 0
DWIDTH 6 0
BBX 7 9 0 0
BITMAP
000B3280
0007C910
00000000
008CD400
09C19A00
3F30AA00
7D01F600
8B0AC000
2CCA1000
ENDCHAR
STARTCHAR Ohungarumlaut
ENCODING 336
SWIDTH 655 0
DWIDTH 8 0
BBX 9 12 0 0
BITMAP
0000036280
00000A6880
0000241500
0002ACD400
003E705D00
01E8003F00
08E1006E00
0E7000BA00
2F3003F400
3F000CA000
1F109C1000
06CC910000
ENDCHAR
STARTCHAR ohungarumlaut
ENCODING 337
SWIDTH 514 0
DWIDTH 6 0
BBX 7 10 0 0
BITMAP
00003030
0005B3D0
001C4C40
00423300
008CD400
09C19A00
3F30AA00
7D01F600
8B0AC000
2CCA1000
ENDCHAR
STARTCHAR OE
ENCODING 338
SWIDTH 900 0
DWIDTH 11 0
BBX 12 9 1 0
BITMAP
0006CCB7DCA1
009D20CE30B4
06E202F509E1
1E8004F01A30
5F1001C96000
9B0004EA3000
A8002E800000
8A02CF308600
1ABC58CC9100
ENDCHAR
STARTCHAR oe
ENCODING 339
SWIDTH 777 0
DWIDTH 9 0
BBX 10 6 0 0
BITMAP
005CC67CC1
05E35FB0D5
0E706F37E1
3F20CEA920
4F06FB0140
0ACC5CBB40
ENDCHAR
STARTCHAR Racute
ENCODING 340
SWIDTH 623 0
DWIDTH 7 0
BBX 9 13 -1 -1
BITMAP
0000000810
0000007D10
0000006100
002ADCB700
0068700D50
0007D00D70
000D806E20
003F7AD400
009CDA0000
01E54E2000
08C00CA000
3C2003EB10
0000000100
ENDCHAR
STARTCHAR racute
ENCODING 341
SWIDTH 407 0
DWIDTH 5 0
BBX 6 10 0 0
BITMAP
000021
0000C8
0006C1
000610
0AA3D4
08BBA3
0CC200
2F6000
8D0000
A60000
ENDCHAR
STARTCHAR Rcommaaccent
ENCODING 342
SWIDTH 623 0
DWIDTH 7 0
BBX 9 12 -1 -3
BITMAP
002ADCB700
0068700D50
0007D00D70
000D806E20
003F7AD400
009CDA0000
01E54E2000
08C00CA000
3C2003EB10
0035000100
006D000000
0094000000
ENDCHAR
STARTCHAR rcommaaccent
ENCODING 343
SWIDTH 407 0
DWIDTH 5 0
BBX 7 9 -1 -3
BITMAP
00AA3D40
008BBA30
00CC2000
02F60000
08D00000
0A600000
16000000
2F100000
76000000
ENDCHAR
STARTCHAR Rcaron
ENCODING 344
SWIDTH 623 0
DWIDTH 7 0
BBX 9 13 -1 -1
BITMAP
0000260140
00001DAC40
0000034000
002ADCB700
0068700D50
0007D00D70
000D806E20
003F7AD400
009CDA0000
01E54E2000
08C00CA000
3C2003EB10
0000000100
ENDCHAR
STARTCHAR rcaron
ENCODING 345
SWIDTH 407 0
DWIDTH 5 0
BBX 7 9 0 0
BITMAP
00590760
001FB700
00041000
0AA3D400
08BBA300
0CC20000
2F600000
8D000000
A6000000
ENDCHAR
STARTCHAR Sacute
ENCODING 346
SWIDTH 474 0
DWIDTH 6 0
BBX 8 12 0 0
BITMAP
00000081
000007D1
00000610
003CCB10
02E40870
08C00C80
09C09E20
06F42200
00CD0000
232E4000
A80D3000
4DB60000
ENDCHAR
STARTCHAR sacute
ENCODING 347
SWIDTH 423 0
DWIDTH 5 0
BBX 6 10 0 0
BITMAP
000022
0000A9
0005D2
000510
03BC90
0C72E1
0AC110
02E800
938B00
8DB300
ENDCHAR
STARTCHAR Scircumflex
ENCODING 348
SWIDTH 474 0
DWIDTH 6 0
BBX 8 12 0 0
BITMAP
00000530
00019CC0
00044061
003CCB10
02E40870
08C00C80
09C09E20
06F42200
00CD0000
232E4000
A80D3000
4DB60000
ENDCHAR
STARTCHAR scircumflex
ENCODING 349
SWIDTH 423 0
DWIDTH 5 0
BBX 6 9 0 0
BITMAP
0002C5
006C9A
016116
03BC90
0C72E1
0AC110
02E800
938B00
8DB300
ENDCHAR
STARTCHAR Scedilla
ENCODING 350
SWIDTH 474 0
DWIDTH 6 0
BBX 7 12 0 -3
BITMAP
003CCB10
02E40870
08C00C80
09C09E20
06F32200
00CC0000
232E4000
A80D4000
6EC80000
05700000
1A800000
2A200000
ENDCHAR
STARTCHAR scedilla
ENCODING 351
SWIDTH 423 0
DWIDTH 5 0
BBX 6 9 0 -3
BITMAP
03BC90
0C72E1
0AC010
02E800
A38B00
9DC400
0B1000
1E2000
9B0000
ENDCHAR
STARTCHAR Scaron
ENCODING 352
SWIDTH 474 0
DWIDTH 6 0
BBX 8 12 0 0
BITMAP
00026014
0001DAC4
00004500
003CCB10
02E40870
08C00C80
09C09E20
06F42200
00CD0000
232E4000
A80D3000
4DB60000
ENDCHAR
STARTCHAR scaron
ENCODING 353
SWIDTH 423 0
DWIDTH 5 0
BBX 7 9 0 0
BITMAP
002B0580
000DB910
00032000
03BC9000
0C72E100
0AC11000
02E80000
938B0000
8DB30000
ENDCHAR
STARTCHAR Tcommaaccent
ENCODING 354
SWIDTH 471 0
DWIDTH 6 0
BBX 8 12 0 -3
BITMAP
0ADBECB4
1B04E000
000AA000
000E6000
004F1000
008B0000
00D50000
05D00000
1C300000
05200000
0C700000
2A100000
ENDCHAR
STARTCHAR tcommaaccent
ENCODING 355
SWIDTH 358 0
DWIDTH 4 0
BBX 5 11 0 -3
BITMAP
003400
00C700
1CEB50
0A9000
0E3000
4E0000
5D2500
2DD300
250000
6D0000
940000
ENDCHAR
STARTCHAR Tcaron
ENCODING 356
SWIDTH 471 0
DWIDTH 6 0
BBX 8 12 0 0
BITMAP
00006205
00009CB8
00001610
0ADBECB4
1B04E000
000AA000
000E6000
004F1000
008B0000
00D50000
05D00000
1C300000
ENDCHAR
STARTCHAR tcaron
ENCODING 357
SWIDTH 497 0
DWIDTH 6 0
BBX 7 10 1 0
BITMAP
00002E10
00002E00
00618500
05E10000
5FC91000
3F100000
8B000000
B6000000
D5510000
8E900000
ENDCHAR
STARTCHAR Tbar
ENCODING 358
SWIDTH 471 0
DWIDTH 6 0
BBX 8 9 0 0
BITMAP
0ADBECB4
2C04E000
0009B000
000D7000
1ACFB100
008C0000
00D70000
04E10000
1C400000
ENDCHAR
STARTCHAR tbar
ENCODING 359
SWIDTH 358 0
DWIDTH 4 0
BBX 5 8 0 0
BITMAP
003400
00C700
1CEB50
0AA000
6FCB30
3E0000
5D2400
2DD300
ENDCHAR
STARTCHAR Utilde
ENCODING 360
SWIDTH 624 0
DWIDTH 8 0
BBX 9 12 0 0
BITMAP
00008C2610
000435C600
0000000000
009D001D30
007D007D00
00D801E800
04F207F200
0BA01EC000
2F308F8000
8C03AE4000
B9193F1000
7D811DB200
ENDCHAR
STARTCHAR utilde
ENCODING 361
SWIDTH 553 0
DWIDTH 7 0
BBX 8 9 0 0
BITMAP
0008D453
00343C70
00000000
07E00B60
07D04F20
0D80CA00
4F27E400
AB48F000
7D61E900
ENDCHAR
STARTCHAR Umacron
ENCODING 362
SWIDTH 624 0
DWIDTH 8 0
BBX 9 11 0 0
BITMAP
0002BBB700
0000000000
009D001D30
007D007D00
00D801E800
04F207F200
0BA01EC000
2F308F8000
8C03AE4000
B9193F1000
7D811DB200
ENDCHAR
STARTCHAR umacron
ENCODING 363
SWIDTH 553 0
DWIDTH 7 0
BBX 7 8 0 0
BITMAP
001BBB80
00000000
07E00B60
07D04F20
0D80CA00
4F27E400
AB48F000
7D61E900
ENDCHAR
STARTCHAR Ubreve
ENCODING 364
SWIDTH 624 0
DWIDTH 8 0
BBX 9 12 0 0
BITMAP
0000420500
00006CA400
0000000000
009D001D30
007D007D00
00D801E800
04F207F200
0BA01EC000
2F308F8000
8C03AE4000
B9193F1000
7D811DB200
ENDCHAR
STARTCHAR ubreve
ENCODING 365
SWIDTH 553 0
DWIDTH 7 0
BBX 7 9 0 0
BITMAP
00077190
0004CA30
00000000
07E00B60
07D04F20
0D80CA00
4F27E400
AB48F000
7D61E900
ENDCHAR
STARTCHAR Uring
ENCODING 366
SWIDTH 624 0
DWIDTH 8 0
BBX 9 12 0 0
BITMAP
000019B300
0000888800
0000A6B500
009D3B8D30
007D007D00
00D801E800
04F207F200
0BA01EC000
2F308F8000
8C03AE4000
B91A3F1000
7D811DB200
ENDCHAR
STARTCHAR uring
ENCODING 367
SWIDTH 553 0
DWIDTH 7 0
BBX 7 9 0 0
BITMAP
0004BD70
0006CB30
00000000
07E00B60
07D04F20
0D80CA00
4F27E400
AB48F000
7D61E900
ENDCHAR
STARTCHAR Uhungarumlaut
ENCODING 368
SWIDTH 624 0
DWIDTH 8 0
BBX 9 12 0 0
BITMAP
0000090910
00005B3C00
0000615100
009D001D30
007D007D00
00D801E800
04F207F200
0BA01EC000
2F308F8000
8C03AE4000
B9193F1000
7D811DB200
ENDCHAR
STARTCHAR uhungarumlaut
ENCODING 369
SWIDTH 553 0
DWIDTH 7 0
BBX 8 10 0 0
BITMAP
00003030
0001E1E2
000A6980
00241500
07E00B60
07D04F20
0D80CA00
4F27E400
AB48F000
7D61E900
ENDCHAR
STARTCHAR Uogonek
ENCODING 370
SWIDTH 684 0
DWIDTH 8 0
BBX 9 12 0 -3
BITMAP
004E400880
001F402F40
007D009D00
00D702F800
05E109F300
0C903ED000
2F30BB9000
5E083C7000
2EA308E600
0000097000
00005C0000
00005C5000
ENDCHAR
STARTCHAR uogonek
ENCODING 371
SWIDTH 553 0
DWIDTH 7 0
BBX 7 9 0 -3
BITMAP
07E00B60
07D04F20
0D80CA00
4F27E400
AB48F000
7D61EB00
0003C200
000C6000
000BA100
ENDCHAR
STARTCHAR Wcircumflex
ENCODING 372
SWIDTH 941 0
DWIDTH 11 0
BBX 12 12 0 0
BITMAP
000000027000
0000005CE300
000001613400
0ACB100000BA
012F5006109E
009E11BD108E
02F70BF5009B
07E19ED000D6
0C85BA9005E1
1F4C1C601D50
2F940C61A700
0B8005DB4000
ENDCHAR
STARTCHAR wcircumflex
ENCODING 373
SWIDTH 750 0
DWIDTH 9 0
BBX 9 9 0 0
BITMAP
000005D000
000199D400
0004404300
09D0170A90
06D08C07C0
0A72F60790
1F2BF10C30
7CA6E07700
7D30CD6000
ENDCHAR
STARTCHAR Ycircumflex
ENCODING 374
SWIDTH 580 0
DWIDTH 7 0
BBX 9 15 0 -3
BITMAP
0000036000
00006CE200
0002604300
009D001D20
007D007D00
00D801E600
05F208F100
0B901EA000
3F309F5000
8C03BE0000
C819980000
7D83E10000
000C600000
00A9000000
2B70000000
ENDCHAR
STARTCHAR ycircumflex
ENCODING 375
SWIDTH 549 0
DWIDTH 7 0
BBX 7 13 0 -4
BITMAP
00006D00
002A9E30
00440430
06E10A70
06E03F40
0C90BE00
3F35F900
9C39E300
7D75C000
000B6000
006C0000
17D20000
15100000
ENDCHAR
STARTCHAR Ydieresis
ENCODING 376
SWIDTH 580 0
DWIDTH 7 0
BBX 9 15 0 -3
BITMAP
0001713600
0005F4AE00
0000201200
009D001D20
007D007D00
00D801E600
05F208F100
0B901EA000
3F309F5000
8C03BE0000
C819980000
7D83E10000
000C600000
00A9000000
2B70000000
ENDCHAR
STARTCHAR Zacute
ENCODING 377
SWIDTH 501 0
DWIDTH 6 0
BBX 9 12 -1 0
BITMAP
0000004500
000001D700
0000034000
004BB9AD10
000002EC00
00001DD200
0001CC2000
000AC10000
008C100000
04C1000000
0D9ABC3000
1E92038000
ENDCHAR
STARTCHAR zacute
ENCODING 378
SWIDTH 430 0
DWIDTH 5 0
BBX 6 10 0 0
BITMAP
000012
00008B
0003D3
000510
07CAD6
0038E2
009D20
0AC100
8D4400
CC9C50
ENDCHAR
STARTCHAR Zdotaccent
ENCODING 379
SWIDTH 501 0
DWIDTH 6 0
BBX 9 12 -1 0
BITMAP
0000172000
00003F6000
0000020000
004BB9AD10
000002EC00
00001DD200
0001CD2000
000AD20000
008D100000
04D1000000
0D9BEE4000
1EA5368000
ENDCHAR
STARTCHAR zdotaccent
ENCODING 380
SWIDTH 430 0
DWIDTH 5 0
BBX 6 9 0 0
BITMAP
000D90
000950
000000
07CAD6
0038E2
009D20
0AC100
8D4400
CC9C50
ENDCHAR
STARTCHAR Zcaron
ENCODING 381
SWIDTH 501 0
DWIDTH 6 0
BBX 9 12 -1 0
BITMAP
0000530410
00006EAA00
0000062000
004BB9AD10
000002EC00
00001DD200
0001CC2000
000AC10000
008C100000
04C1000000
0D9ABC3000
1E92038000
ENDCHAR
STARTCHAR zcaron
ENCODING 382
SWIDTH 430 0
DWIDTH 5 0
BBX 7 9 0 0
BITMAP
00681940
003EB600
00050000
07CAD600
0038E200
009D2000
0AC10000
8D440000
CC9C5000
ENDCHAR
STARTCHAR florin
ENCODING 402
SWIDTH 466 0
DWIDTH 6 0
BBX 10 13 -3 -3
BITMAP
00000007C7
0000006C1D
000001E49C
000007C032
00008EDA20
00007F1000
00006D0000
0000A90000
0000D60000
0002F20000
0007C00000
2D0D500000
1CC8000000
ENDCHAR
STARTCHAR AEacute
ENCODING 508
SWIDTH 878 0
DWIDTH 11 0
BBX 13 12 -1 0
BITMAP
00000000045000
000000001D7000
00000000340000
0000008BDCDB20
00001B69E40960
0000A81F607F20
0006C02F20A500
007EBBCFD80000
00C6008E400000
05E000E7014000
1D6000F84C8000
AA00006EE91000
ENDCHAR
STARTCHAR aeacute
ENCODING 509
SWIDTH 770 0
DWIDTH 9 0
BBX 9 10 0 0
BITMAP
0000004000
000003F100
00000C7000
0000330000
007CBCCD90
08C17F45F0
2F20CB1CB0
7C03FCC810
8B1BE70220
3DA35DBA20
ENDCHAR
STARTCHAR Scommaaccent
ENCODING 536
SWIDTH 474 0
DWIDTH 6 0
BBX 7 12 0 -3
BITMAP
003CCB10
02E40870
08C00C80
09C09E20
06F42200
00CD0000
232E4000
A80D3000
4DB60000
05300000
0B800000
2A100000
ENDCHAR
STARTCHAR scommaaccent
ENCODING 537
SWIDTH 423 0
DWIDTH 5 0
BBX 6 9 0 -3
BITMAP
03BC90
0C72E1
0AC110
02E800
938B00
8DB300
160000
2F2000
660000
ENDCHAR
STARTCHAR dotlessj
ENCODING 567
SWIDTH 277 0
DWIDTH 3 0
BBX 5 9 -2 -3
BITMAP
000AC0
0008C0
000B80
001E40
005E00
00B800
03E100
0C5000
A60000
ENDCHAR
STARTCHAR circumflex
ENCODING 710
SWIDTH 354 0
DWIDTH 4 0
BBX 5 3 0 7
BITMAP
002400
05DC00
991D20
ENDCHAR
STARTCHAR caron
ENCODING 711
SWIDTH 381 0
DWIDTH 5 0
BBX 5 3 0 6
BITMAP
4A0770
1EB700
031000
ENDCHAR
STARTCHAR breve
ENCODING 728
SWIDTH 344 0
DWIDTH 4 0
BBX 5 2 0 7
BITMAP
590910
2CB400
ENDCHAR
STARTCHAR dotaccent
ENCODING 729
SWIDTH 217 0
DWIDTH 3 0
BBX 3 2 0 7
BITMAP
1E70
0A30
ENDCHAR
STARTCHAR ring
ENCODING 730
SWIDTH 402 0
DWIDTH 5 0
BBX 4 3 1 6
BITMAP
0AC8
5A5B
2CB3
ENDCHAR
STARTCHAR ogonek
ENCODING 731
SWIDTH 311 0
DWIDTH 4 0
BBX 4 4 0 -3
BITMAP
0052
0950
5C00
4C50
ENDCHAR
STARTCHAR tilde
ENCODING 732
SWIDTH 397 0
DWIDTH 5 0
BBX 6 2 0 7
BITMAP
08D453
343C70
ENDCHAR
STARTCHAR hungarumlaut
ENCODING 733
SWIDTH 392 0
DWIDTH 5 0
BBX 5 3 0 7
BITMAP
038190
0A6980
685900
ENDCHAR
STARTCHAR pi
ENCODING 960
SWIDTH 640 0
DWIDTH 8 0
BBX 9 6 -1 0
BITMAP
019CEEFE80
000951F300
001D16C000
00890A8000
05F20C7100
1D7009D300
ENDCHAR
STARTCHAR uni1E02
ENCODING 7682
SWIDTH 551 0
DWIDTH 7 0
BBX 8 12 0 0
BITMAP
00003600
0000AE00
00001200
05BCBC60
078602F2
01D804F1
07D16E60
0DEEF400
2F209A00
5B008B00
6A03E500
1CCB4000
ENDCHAR
STARTCHAR uni1E03
ENCODING 7683
SWIDTH 525 0
DWIDTH 6 0
BBX 7 10 0 0
BITMAP
00780000
00B81E80
00E40A40
04E00000
09AAD600
0DD28C00
3F409C00
7C00E700
7909D100
2CC91000
ENDCHAR
STARTCHAR uni1E0A
ENCODING 7690
SWIDTH 630 0
DWIDTH 8 0
BBX 8 12 0 0
BITMAP
00002710
00006F30
00000200
06CCBB60
046401D5
009E108A
02F6009B
08D000D8
0D8006E1
3F204E50
6D06E600
2CCA2000
ENDCHAR
STARTCHAR uni1E0B
ENCODING 7691
SWIDTH 557 0
DWIDTH 7 0
BBX 8 10 0 0
BITMAP
00000079
009D00E6
006804E1
000009A0
005CBD50
06D15F10
1E409B00
6E01E700
7D0AF400
2DB5AB30
ENDCHAR
STARTCHAR uni1E1E
ENCODING 7710
SWIDTH 518 0
DWIDTH 6 0
BBX 8 12 0 0
BITMAP
00001720
00004F50
00000200
1BDCFEE4
3B08A000
000E6000
004F2000
04DFB800
02F60000
05E10000
0D700000
79000000
ENDCHAR
STARTCHAR uni1E1F
ENCODING 7711
SWIDTH 393 0
DWIDTH 5 0
BBX 8 14 -1 -2
BITMAP
00000100
00006F30
00005FA1
0000D5A6
0004E2F4
0009A050
000D6000
02BFCA00
019C0000
00C70000
01F30000
07D00000
0C700000
2C100000
ENDCHAR
STARTCHAR uni1E40
ENCODING 7744
SWIDTH 931 0
DWIDTH 11 0
BBX 14 12 -2 0
BITMAP
00000000006300
0000000001F800
00000000002000
0000003CB008E2
000003BC808BE0
00001D4F33CA90
0000877E0C4E40
0002D1B9595E00
000A60E6B29B00
004D00F890D700
01D401FD10E500
1C7000D5009C60
ENDCHAR
STARTCHAR uni1E41
ENCODING 7745
SWIDTH 814 0
DWIDTH 10 0
BBX 10 9 0 0
BITMAP
00000AC000
0000067000
0000000000
08D1AC19E2
07C82D93F3
0BC27F39C0
2F40D81E50
9B05E13F20
C407801DB0
ENDCHAR
STARTCHAR uni1E56
ENCODING 7766
SWIDTH 553 0
DWIDTH 7 0
BBX 9 12 -1 0
BITMAP
0000006300
000001F800
0000002000
0029DCB600
00AC201E40
0015C00E60
000C905F20
003F46E600
009FDA4000
01E6000000
08C0000000
3C20000000
ENDCHAR
STARTCHAR uni1E57
ENCODING 7767
SWIDTH 550 0
DWIDTH 7 0
BBX 8 12 -1 -3
BITMAP
00007E20
00004900
00000000
00C98DA0
00AE53F2
00E904F1
03F209B0
07E05E20
0BBCB300
1F200000
7C000000
B5000000
ENDCHAR
STARTCHAR uni1E60
ENCODING 7776
SWIDTH 474 0
DWIDTH 6 0
BBX 7 12 0 0
BITMAP
00004500
0000BC00
00001100
003CCB10
02E40870
08C00C80
09C09E20
06F42200
00CD0000
232E4000
A80D3000
4DB60000
ENDCHAR
STARTCHAR uni1E61
ENCODING 7777
SWIDTH 423 0
DWIDTH 5 0
BBX 6 9 0 0
BITMAP
0009E0
000580
000000
03BC90
0C72E1
0AC110
02E800
938B00
8DB300
ENDCHAR
STARTCHAR uni1E6A
ENCODING 7786
SWIDTH 430 0
DWIDTH 5 0
BBX 8 12 0 0
BITMAP
00004600
0000BD00
00001100
3CCCEBB2
5709A000
000E6000
004F2000
008C0000
00D70000
03F20000
0A900000
5B100000
ENDCHAR
STARTCHAR uni1E6B
ENCODING 7787
SWIDTH 358 0
DWIDTH 4 0
BBX 5 9 0 0
BITMAP
000BB0
000D60
008C00
08FB80
06D000
0A8000
0E4000
1F3500
0BE600
ENDCHAR
STARTCHAR Wgrave
ENCODING 7808
SWIDTH 941 0
DWIDTH 11 0
BBX 12 12 0 0
BITMAP
000000230000
0000007D1000
000000053000
0ACB100000BA
012F5006109E
009E11BD108E
02F71CF4009B
07E1ADD000D6
0C85BA9005E1
1F4C1C601D50
2FA40C61B700
0B8005EC4000
ENDCHAR
STARTCHAR wgrave
ENCODING 7809
SWIDTH 750 0
DWIDTH 9 0
BBX 9 9 0 0
BITMAP
00005C0000
00004D0000
0000051000
09D0170A90
06D08C07C0
0A72F60790
1F2BF10C30
7CA6E07700
7D30CD6000
ENDCHAR
STARTCHAR Wacute
ENCODING 7810
SWIDTH 941 0
DWIDTH 11 0
BBX 12 12 0 0
BITMAP
000000005400
00000002E500
000000043000
0ACB100000BA
012F5006109E
009E11BD108E
02F70BF5009B
07E19ED000D6
0C85BA9005E1
1F4C1C601D50
2F940C61A700
0B8005DB4000
ENDCHAR
STARTCHAR wacute
ENCODING 7811
SWIDTH 750 0
DWIDTH 9 0
BBX 9 10 0 0
BITMAP
0000003000
000006E000
00001D5000
0000420000
09D0170A90
06D08C07C0
0A72F60790
1F2BF10C30
7CA6E07700
7D30CD6000
ENDCHAR
STARTCHAR Wdieresis
ENCODING 7812
SWIDTH 941 0
DWIDTH 11 0
BBX 12 12 0 0
BITMAP
000001722600
000004F59F10
000000301200
0ACB100000BA
012F5006109E
009E11BD108E
02F71CF4009B
07E1ADD000D6
0C85BA9005E1
1F4C1C601D50
2FA40C61B700
0B8005EC4000
ENDCHAR
STARTCHAR wdieresis
ENCODING 7813
SWIDTH 750 0
DWIDTH 9 0
BBX 9 9 0 0
BITMAP
0005E3AD00
0003A16700
0000000000
09D0170A90
06D08C07C0
0A72F60790
1F2BF10C30
7CA6E07700
7D30CD6000
ENDCHAR
STARTCHAR Ygrave
ENCODING 7922
SWIDTH 580 0
DWIDTH 7 0
BBX 9 15 0 -3
BITMAP
0000870000
00007D1000
0000052000
009D001D20
007D007D00
00D801E600
05F208F100
0B901EA000
3F309F5000
8C03BE0000
C819980000
7D83E10000
000C600000
00A9000000
2B70000000
ENDCHAR
STARTCHAR ygrave
ENCODING 7923
SWIDTH 549 0
DWIDTH 7 0
BBX 7 13 0 -4
BITMAP
0006B000
0005C000
00005000
06E10A70
06E03F40
0C90BE00
3F35F900
9C39E300
7D75C000
000B6000
006C0000
17D20000
15100000
ENDCHAR
STARTCHAR endash
ENCODING 8211
SWIDTH 751 0
DWIDTH 9 0
BBX 8 1 1 3
BITMAP
9BBBBBB1
ENDCHAR
STARTCHAR emdash
ENCODING 8212
SWIDTH 1066 0
DWIDTH 13 0
BBX 11 1 1 3
BITMAP
8BBBBBBBBBA0
ENDCHAR
STARTCHAR quoteleft
ENCODING 8216
SWIDTH 268 0
DWIDTH 3 0
BBX 3 3 1 7
BITMAP
0860
3E00
3E10
ENDCHAR
STARTCHAR quoteright
ENCODING 8217
SWIDTH 268 0
DWIDTH 3 0
BBX 3 3 1 7
BITMAP
09A0
07A0
1A20
ENDCHAR
STARTCHAR quotesinglbase
ENCODING 8218
SWIDTH 268 0
DWIDTH 3 0
BBX 2 3 0 -1
BITMAP
5E
2E
95
ENDCHAR
STARTCHAR quotedblleft
ENCODING 8220
SWIDTH 485 0
DWIDTH 6 0
BBX 6 3 1 7
BITMAP
0582A1
2F1B60
3E2C60
ENDCHAR
STARTCHAR quotedblright
ENCODING 8221
SWIDTH 480 0
DWIDTH 6 0
BBX 6 3 1 7
BITMAP
05D1E4
05C0E2
1A2760
ENDCHAR
STARTCHAR quotedblbase
ENCODING 8222
SWIDTH 463 0
DWIDTH 6 0
BBX 5 3 0 -1
BITMAP
5E1E40
2E0C50
954900
ENDCHAR
STARTCHAR dagger
ENCODING 8224
SWIDTH 488 0
DWIDTH 6 0
BBX 5 9 1 0
BITMAP
008B00
00CB00
7CFEB0
04F200
08C000
0C6000
2E1000
770000
A00000
ENDCHAR
STARTCHAR daggerdbl
ENCODING 8225
SWIDTH 488 0
DWIDTH 6 0
BBX 6 9 0 0
BITMAP
0008B0
000CB0
07CFEB
004F30
008C00
1AEEA0
02E100
078000
0A1000
ENDCHAR
STARTCHAR bullet
ENCODING 8226
SWIDTH 437 0
DWIDTH 5 0
BBX 4 3 1 2
BITMAP
4EC1
9FF2
3B70
ENDCHAR
STARTCHAR ellipsis
ENCODING 8230
SWIDTH 810 0
DWIDTH 10 0
BBX 9 2 0 0
BITMAP
8E25E52E80
6A03B21B40
ENDCHAR
STARTCHAR perthousand
ENCODING 8240
SWIDTH 1184 0
DWIDTH 14 0
BBX 14 9 0 0
BITMAP
03CD501C200000
0D67A0A7000000
1F2C65C0000000
08C81D30000000
0000A700000000
0005C18A604A90
001D28A4E3E2C5
00A70D59B7B3F2
04A007CC22CD50
ENDCHAR
STARTCHAR guilsinglleft
ENCODING 8249
SWIDTH 413 0
DWIDTH 5 0
BBX 5 5 0 1
BITMAP
001930
07D400
1E6000
03D400
002500
ENDCHAR
STARTCHAR guilsinglright
ENCODING 8250
SWIDTH 416 0
DWIDTH 5 0
BBX 5 5 0 1
BITMAP
07A000
00BA00
006E20
0A9100
220000
ENDCHAR
STARTCHAR fraction
ENCODING 8260
SWIDTH 580 0
DWIDTH 7 0
BBX 7 10 0 0
BITMAP
00000150
00000B60
00006B00
0001D300
00098000
003D1000
00C50000
06B00000
1D200000
77000000
ENDCHAR
STARTCHAR Euro
ENCODING 8364
SWIDTH 622 0
DWIDTH 7 0
BBX 8 9 0 0
BITMAP
00004CC7
0004E41E
002E60AC
009D00B3
08FDA300
2CFB8000
06F00000
03F30620
007DCA10
ENDCHAR
STARTCHAR trademark
ENCODING 8482
SWIDTH 1084 0
DWIDTH 13 0
BBX 10 6 2 4
BITMAP
0110001001
BDEC6AC1CA
09604CA8B8
0E10B7AAA5
2D0587E3C5
1918137064
ENDCHAR
STARTCHAR Omega
ENCODING 8486
SWIDTH 839 0
DWIDTH 10 0
BBX 10 10 0 0
BITMAP
0000110000
004BBAC500
03E4003E60
0C900007E0
1F600004F3
1F600004F3
0D900007E0
05E1000D70
2389007922
4FDF53FCF6
ENDCHAR
STARTCHAR partialdiff
ENCODING 8706
SWIDTH 580 0
DWIDTH 7 0
BBX 7 10 0 0
BITMAP
0003A910
001E5690
000803C0
004AA7C0
06F51EB0
2F701E70
7E106F20
AB00D900
8A09D100
2DCA2000
ENDCHAR
STARTCHAR Delta
ENCODING 8710
SWIDTH 663 0
DWIDTH 8 0
BBX 8 8 0 0
BITMAP
00001000
0008E000
002BD600
00A36D00
03A00E50
0B2007C0
490001E4
BBAAAAD7
ENDCHAR
STARTCHAR product
ENCODING 8719
SWIDTH 667 0
DWIDTH 8 0
BBX 8 11 0 -1
BITMAP
00222210
0C9889F2
1F4002F2
1F4002F2
1F4002F2
1F4002F2
1F4002F2
1F4002F2
1F4002F2
1F4002F2
1E2002E1
ENDCHAR
STARTCHAR summation
ENCODING 8721
SWIDTH 677 0
DWIDTH 8 0
BBX 8 12 0 -2
BITMAP
00222220
0BDAAA93
09F30000
01DC0000
004F8000
0008F200
0007B000
005D1000
03E20000
2D400000
8FFFFFD0
02222200
ENDCHAR
STARTCHAR minus
ENCODING 8722
SWIDTH 617 0
DWIDTH 7 0
BBX 7 1 0 4
BITMAP
2CCCCC70
ENDCHAR
STARTCHAR radical
ENCODING 8730
SWIDTH 709 0
DWIDTH 9 0
BBX 10 12 0 0
BITMAP
0000000012
00000000A7
00000003F3
0000000AA0
0000003E20
000000A800
09C003D100
69F30B6000
00D53C0000
00A8B30000
006DA00000
003E200000
ENDCHAR
STARTCHAR infinity
ENCODING 8734
SWIDTH 681 0
DWIDTH 8 0
BBX 8 5 0 2
BITMAP
00200120
1CDB8EC6
5A09E33B
2CAEBAD7
03620440
ENDCHAR
STARTCHAR integral
ENCODING 8747
SWIDTH 583 0
DWIDTH 7 0
BBX 10 15 -1 -3
BITMAP
0000000220
0000007DB3
000003F2A6
00000A93D1
00001F4000
00006E0000
0000A90000
0000E50000
0004F10000
0009B00000
000D600000
894E100000
E3B8000000
BAC1000000
1410000000
ENDCHAR
STARTCHAR approxequal
ENCODING 8776
SWIDTH 671 0
DWIDTH 8 0
BBX 8 6 0 1
BITMAP
018B4015
0A7AF7B3
05007A40
05DD3071
2B3CEAA0
21017600
ENDCHAR
STARTCHAR notequal
ENCODING 8800
SWIDTH 617 0
DWIDTH 7 0
BBX 6 9 1 0
BITMAP
000012
0001C3
011890
BCDEC9
00B500
ABFBB8
3E3221
970000
400000
ENDCHAR
STARTCHAR lessequal
ENCODING 8804
SWIDTH 704 0
DWIDTH 8 0
BBX 7 8 0 0
BITMAP
00001880
0007D600
06D81000
2DB10000
007D6000
00019C30
00000230
1CDDDD70
ENDCHAR
STARTCHAR greaterequal
ENCODING 8805
SWIDTH 617 0
DWIDTH 7 0
BBX 7 8 0 0
BITMAP
1C700000
018D5000
0002BC30
00018D50
005D8100
1B920000
12000000
2CDDDD60
ENDCHAR
STARTCHAR lozenge
ENCODING 9674
SWIDTH 580 0
DWIDTH 7 0
BBX 7 10 0 0
BITMAP
00010000
003E2000
00CAA000
0690D400
1D104D00
6A000C40
1D303C00
05B0C400
00BAA000
003E2000
ENDCHAR
STARTCHAR commaaccent
ENCODING 63171
SWIDTH 250 0
DWIDTH 3 0
BBX 3 3 0 -3
BITMAP
0510
0E50
3A00
ENDCHAR
STARTCHAR ff
ENCODING 64256
SWIDTH 773 0
DWIDTH 9 0
BBX 12 12 -1 -2
BITMAP
00003BB107C7
0000D5A64E2F
0005E2F4A88D
0009A050E432
000D6003F000
03AFCCCDEB50
03AC000D5000
00C7003F1000
01F3008C0000
06D000D70000
0C8004F10000
2C1007700000
ENDCHAR
STARTCHAR fi
ENCODING 64257
SWIDTH 623 0
DWIDTH 7 0
BBX 9 12 -1 -2
BITMAP
000007CB30
00009B17B0
0003E20AA0
0009900630
005EDACE00
05CE005D00
009A00B800
00D502F200
03F106C000
08A005E500
1E40000000
1600000000
ENDCHAR
STARTCHAR fl
ENCODING 64258
SWIDTH 637 0
DWIDTH 8 0
BBX 9 12 -1 -2
BITMAP
000007CB40
00009C15D0
0003F406C0
0009C00A80
000E701E40
02BFC95E00
019B00B900
00C701F400
02F204E000
08B002E800
1E50000000
2600000000
ENDCHAR
STARTCHAR .notdef
ENCODING -1
SWIDTH 896 0
DWIDTH 11 0
BBX 12 12 0 -1
BITMAP
000288888885
000BFFFFFFFA
001FFEFFEFF6
006FC1F73CF2
00AFA084EFC0
00EFD04FFF80
04FFD08FFF40
08FE362DEE00
0DF4BE43EA00
2FFFFFFFF500
4FFFFFFFD100
012222220000
ENDCHAR
ENDFONT
